<?xml version="1.0" encoding="UTF-8" standalone="no"?>
<!DOCTYPE svg PUBLIC "-//W3C//DTD SVG 1.1//EN" "http://www.w3.org/Graphics/SVG/1.1/DTD/svg11.dtd">
<svg width="100%" height="100%" viewBox="0 0 304 190" version="1.1" xml:space="preserve" style="fill-rule:evenodd;clip-rule:evenodd;stroke-linecap:round;stroke-linejoin:round;stroke-miterlimit:1.5" id="svg119" xmlns:xlink="http://www.w3.org/1999/xlink" xmlns="http://www.w3.org/2000/svg">
  <g id="_0" transform="translate(151.685 -1027.53)">
    <g transform="rotate(-180 0 1122.52)" id="g14">
      <g id="outer-loop" transform="translate(-151.685 1027.53)">
        <path d="M70.895 186.676a211.25 211.25 0 0 1 28.774-9.579 212.713 212.713 0 0 1 43.507-6.348c15.733-.635 31.694.561 46.583 3.296a212.127 212.127 0 0 1 42.716 12.631c3.451 1.432 7.139 2.382 10.973 2.69a34.683 34.683 0 0 0 11.881-1.131c4.766-1.3 9.397-3.637 13.592-6.7 2.949-2.153 5.69-4.654 8.202-7.382 6.918-7.513 12.088-16.607 15.944-26.066 4.846-11.886 7.682-24.466 8.985-37.144a155.958 155.958 0 0 0-.141-33.224c-.92-8.256-2.509-16.454-4.871-24.455-2.073-7.02-4.743-13.896-8.158-20.417-3.18-6.07-7.016-11.845-11.631-16.886-4.221-4.612-9.123-8.592-14.499-11.332-4.601-2.345-9.53-3.745-14.378-4.059-5.572-.361-10.988.69-15.899 2.728a211.236 211.236 0 0 1-28.773 9.579 212.723 212.723 0 0 1-43.508 6.348c-15.733.635-31.694-.561-46.582-3.296A212.138 212.138 0 0 1 70.895 3.298C67.444 1.866 63.756.916 59.923.608a34.689 34.689 0 0 0-11.882 1.131c-4.766 1.3-9.397 3.637-13.592 6.7-2.949 2.153-5.69 4.654-8.202 7.382-6.918 7.513-12.088 16.607-15.944 26.066C5.458 53.773 2.622 66.353 1.318 79.03a155.967 155.967 0 0 0 .141 33.225c.921 8.256 2.509 16.454 4.871 24.455 2.073 7.02 4.743 13.896 8.159 20.417 3.179 6.07 7.016 11.845 11.63 16.886 4.221 4.612 9.123 8.592 14.5 11.332 4.6 2.345 9.53 3.745 14.377 4.059 5.572.361 10.988-.69 15.899-2.728Z" style="fill:url(#_Linear1);fill-rule:nonzero" id="path1"/>
      </g>
      <g id="inner-loop" transform="translate(-151.685 1027.53)">
        <path d="M235.231 185.035a219.58 219.58 0 0 0-44.174-13.053c-15.396-2.825-31.902-4.062-48.171-3.405a220.114 220.114 0 0 0-44.991 6.559 218.549 218.549 0 0 0-29.756 9.899c-4.568 1.893-9.525 2.848-14.63 2.517-4.442-.287-8.98-1.566-13.283-3.758-5.029-2.561-9.703-6.335-13.772-10.777-4.448-4.857-8.199-10.486-11.32-16.442-3.353-6.399-5.993-13.187-8.046-20.138-2.34-7.921-3.92-16.064-4.835-24.273a155.18 155.18 0 0 1-.14-33.05c1.296-12.607 4.122-25.1 8.902-36.821 3.804-9.328 8.895-18.234 15.562-25.471 2.421-2.627 5.045-5.017 7.84-7.056 3.976-2.902 8.304-5.072 12.701-6.27a31.774 31.774 0 0 1 10.904-1.039c3.514.281 6.908 1.152 10.117 2.482a219.59 219.59 0 0 0 44.175 13.053c15.396 2.825 31.901 4.062 48.17 3.405a220.114 220.114 0 0 0 44.991-6.559 218.702 218.702 0 0 0 29.757-9.899c4.567-1.894 9.524-2.848 14.63-2.517 4.441.287 8.98 1.566 13.282 3.758 5.029 2.561 9.704 6.334 13.772 10.777 4.449 4.857 8.199 10.486 11.32 16.442 3.353 6.399 5.993 13.187 8.046 20.138 2.34 7.921 3.92 16.064 4.836 24.273a155.18 155.18 0 0 1 .139 33.05c-1.296 12.607-4.122 25.1-8.902 36.821-3.804 9.328-8.895 18.234-15.562 25.47-2.421 2.628-5.045 5.018-7.84 7.057-3.976 2.902-8.304 5.072-12.701 6.27a31.799 31.799 0 0 1-10.904 1.039c-3.513-.281-6.907-1.152-10.117-2.482Z" style="fill:url(#_Linear2);fill-rule:nonzero" id="path2"/>
      </g>
      <g id="g9">
        <g id="touchpad-top-lefttouchpad-top-right-mask" transform="rotate(180 75.842 608.755)">
          <path d="M32.628 72.019h28.389-28.389Zm28.389 0A17.011 17.011 0 0 0 76.58 61.873a82.024 82.024 0 0 1 7.258-13.082l2.212-3.094c.148-.196.978-1.277 1.244-1.614a17.004 17.004 0 0 0 2.336-17.141 17.007 17.007 0 0 0-10.239-9.521 224.849 224.849 0 0 1-14.215-5.336c-2.839-1.177-5.73-1.922-9.187-1.987-4.45-.084-7.993 1.116-10.043 1.964-2.925 1.211-6.797 3.315-11.252 7.538-4.983 4.722-9.135 10.662-12.463 16.924-1.979 3.723-3.876 7.956-5.593 12.692a17.013 17.013 0 0 0 1.741 15.082 16.997 16.997 0 0 0 9.578 7.067c1.496.428 3.067.654 4.671.654" style="fill:url(#_Linear3);fill-rule:nonzero;stroke:#292929;stroke-opacity:.75;stroke-width:2.4px" id="path3"/>
        </g>
        <g id="touchpad-bottom-lefttouchpad-top-right-mask" transform="rotate(180 75.842 608.755)">
          <path d="M16.632 140.739c2.536 7.023 5.469 12.92 8.569 17.841 3.144 4.991 6.807 9.545 11.108 13.247 4.584 3.945 8.378 5.642 10.567 6.449 2.767 1.021 6.272 1.867 10.499 1.531 2.909-.23 5.373-.911 7.801-1.918a225.825 225.825 0 0 1 14.217-5.341 17.015 17.015 0 0 0 11.551-16.781 16.997 16.997 0 0 0-3.652-9.879c-.277-.351-1.105-1.43-1.242-1.612l-2.212-3.093a82.024 82.024 0 0 1-7.258-13.082 17.022 17.022 0 0 0-7.932-8.338 16.984 16.984 0 0 0-7.631-1.808H32.629a17 17 0 0 0-14.057 7.433 17.008 17.008 0 0 0-1.94 15.351Z" style="fill:url(#_Linear4);fill-rule:nonzero" id="path4"/>
          <path d="M61.017 115.557a19.379 19.379 0 0 1 8.707 2.063 19.393 19.393 0 0 1 9.049 9.514 79.722 79.722 0 0 0 7.031 12.678l2.164 3.025.014.019.016.022c.197.259.922 1.203 1.175 1.523a19.405 19.405 0 0 1-9.013 30.418 224.056 224.056 0 0 0-14.066 5.285c-2.655 1.1-5.349 1.841-8.529 2.093-4.637.369-8.483-.551-11.519-1.671-2.339-.863-6.401-2.665-11.301-6.882-4.478-3.855-8.3-8.589-11.573-13.786-3.181-5.05-6.193-11.098-8.795-18.305a19.399 19.399 0 0 1 2.214-17.514 19.397 19.397 0 0 1 16.038-8.482H61.017Zm-44.385 25.182c2.536 7.023 5.469 12.92 8.569 17.841 3.144 4.991 6.807 9.545 11.108 13.247 4.584 3.945 8.378 5.642 10.567 6.449 2.767 1.021 6.272 1.867 10.499 1.531 2.909-.23 5.373-.911 7.801-1.918a225.825 225.825 0 0 1 14.217-5.341 17.015 17.015 0 0 0 11.551-16.781 16.997 16.997 0 0 0-3.652-9.879c-.277-.351-1.105-1.43-1.242-1.612l-2.212-3.093a82.024 82.024 0 0 1-7.258-13.082 17.022 17.022 0 0 0-7.932-8.338 16.984 16.984 0 0 0-7.631-1.808H32.629a17 17 0 0 0-14.057 7.433 17.008 17.008 0 0 0-1.94 15.351Z" style="fill:#292929;fill-opacity:.75" id="path5"/>
        </g>
        <g id="touchpad-bottom-touchpad-top-right-mask" transform="rotate(180 75.842 608.755)">
          <path d="M270.742 117.955h-28.389a17.012 17.012 0 0 0-15.562 10.146 82.102 82.102 0 0 1-7.258 13.082l-2.213 3.093c-.148.198-.978 1.278-1.244 1.615a16.99 16.99 0 0 0-3.662 10.892 17.004 17.004 0 0 0 11.566 15.77 220.882 220.882 0 0 1 14.215 5.336c2.838 1.177 5.73 1.922 9.186 1.987 4.451.084 7.993-1.116 10.043-1.964 2.925-1.211 6.797-3.315 11.253-7.538 4.982-4.722 9.134-10.662 12.462-16.924 1.979-3.723 3.877-7.956 5.593-12.692a17.013 17.013 0 0 0-1.741-15.082 16.997 16.997 0 0 0-9.578-7.067 16.979 16.979 0 0 0-4.671-.654Z" style="fill:url(#_Linear5);fill-rule:nonzero" id="path6"/>
          <path d="m217.55 139.834.03-.043a79.69 79.69 0 0 0 7.017-12.657 19.392 19.392 0 0 1 9.925-9.927 19.408 19.408 0 0 1 7.831-1.65h28.389a19.423 19.423 0 0 1 10.232 2.916 19.411 19.411 0 0 1 9.129 17.798 19.392 19.392 0 0 1-1.117 5.304c-1.758 4.851-3.702 9.187-5.73 13.001-3.45 6.491-7.764 12.642-12.93 17.538-4.743 4.496-8.871 6.725-11.985 8.013-2.246.93-6.129 2.239-11.005 2.147-3.784-.072-6.952-.882-10.06-2.17a217.924 217.924 0 0 0-14.063-5.279 19.413 19.413 0 0 1-11.683-10.863 19.422 19.422 0 0 1-.476-13.794 19.412 19.412 0 0 1 3.141-5.764c.251-.317 1.016-1.313 1.193-1.547l2.162-3.023Zm53.192-21.879h-28.389a17.012 17.012 0 0 0-15.562 10.146 82.102 82.102 0 0 1-7.258 13.082l-2.213 3.093c-.148.198-.978 1.278-1.244 1.615a16.99 16.99 0 0 0-3.662 10.892 17.004 17.004 0 0 0 11.566 15.77 220.882 220.882 0 0 1 14.215 5.336c2.838 1.177 5.73 1.922 9.186 1.987 4.451.084 7.993-1.116 10.043-1.964 2.925-1.211 6.797-3.315 11.253-7.538 4.982-4.722 9.134-10.662 12.462-16.924 1.979-3.723 3.877-7.956 5.593-12.692a17.013 17.013 0 0 0-1.741-15.082 16.997 16.997 0 0 0-9.578-7.067 16.979 16.979 0 0 0-4.671-.654Z" style="fill:#292929;fill-opacity:.75" id="path7"/>
        </g>
        <g id="touchpad-top-right-mask" transform="translate(-151.685 1027.53)">
          <path d="M32.629 117.955a17 17 0 0 0-14.057 7.433 17.008 17.008 0 0 0-1.94 15.351c2.536 7.023 5.469 12.92 8.569 17.841 3.144 4.991 6.807 9.545 11.108 13.247 4.584 3.946 8.378 5.642 10.567 6.449 2.767 1.022 6.272 1.867 10.499 1.532 2.909-.231 5.373-.912 7.801-1.919a225.825 225.825 0 0 1 14.217-5.341 17.015 17.015 0 0 0 11.551-16.78 17.003 17.003 0 0 0-3.652-9.88c-.277-.351-1.242-1.612-3.454-4.705a82.024 82.024 0 0 1-7.258-13.082 17.022 17.022 0 0 0-7.932-8.338 16.984 16.984 0 0 0-7.631-1.808H32.629Z" style="fill:url(#_Linear6);fill-rule:nonzero" id="path8"/>
          <path d="M32.629 115.557h28.388a19.385 19.385 0 0 1 8.707 2.063 19.393 19.393 0 0 1 9.049 9.514 79.712 79.712 0 0 0 7.031 12.677c2.158 3.016 3.098 4.247 3.369 4.59a19.405 19.405 0 0 1-9.013 30.418 224.056 224.056 0 0 0-14.066 5.285c-2.655 1.1-5.349 1.841-8.529 2.094-4.637.368-8.483-.552-11.519-1.672-2.339-.863-6.401-2.665-11.301-6.882-4.478-3.855-8.3-8.589-11.573-13.787-3.181-5.049-6.193-11.097-8.795-18.304a19.399 19.399 0 0 1 2.214-17.514 19.397 19.397 0 0 1 16.038-8.482Zm0 2.398a17 17 0 0 0-14.057 7.433 17.008 17.008 0 0 0-1.94 15.351c2.536 7.023 5.469 12.92 8.569 17.841 3.144 4.991 6.807 9.545 11.108 13.247 4.584 3.946 8.378 5.642 10.567 6.449 2.767 1.022 6.272 1.867 10.499 1.532 2.909-.231 5.373-.912 7.801-1.919a225.825 225.825 0 0 1 14.217-5.341 17.015 17.015 0 0 0 11.551-16.78 17.003 17.003 0 0 0-3.652-9.88c-.277-.351-1.242-1.612-3.454-4.705a82.024 82.024 0 0 1-7.258-13.082 17.022 17.022 0 0 0-7.932-8.338 16.984 16.984 0 0 0-7.631-1.808H32.629Z" style="fill:#292929;fill-opacity:.75" id="path9"/>
        </g>
      </g>
      <g id="g13">
        <g id="touchpad-top-left" transform="rotate(180 75.843 608.755)" style="display:inline">
          <path id="path10" style="display:inline;fill:#65c2dd;fill-opacity:0;fill-rule:nonzero" d="M55.967 11.297c-4.222-.08-7.592 1.059-9.56 1.873-2.818 1.166-6.54 3.18-10.887 7.3-4.86 4.606-8.948 10.443-12.229 16.618-1.951 3.67-3.825 7.852-5.523 12.537a15.803 15.803 0 0 0 1.617 14.018 15.799 15.799 0 0 0 8.902 6.568c1.39.398 2.85.607 4.342.607h28.389v-.002a15.812 15.812 0 0 0 11.226-4.677 15.808 15.808 0 0 0 1.836-2.229 1.2 1.2 0 0 0 .002 0 15.787 15.787 0 0 0 1.4-2.523 83.22 83.22 0 0 1 7.364-13.274 1.2 1.2 0 0 1 .017-.021l2.211-3.096a1.2 1.2 0 0 1 .02-.023c.17-.225.972-1.271 1.26-1.635a15.822 15.822 0 0 0 3.402-10.123 15.797 15.797 0 0 0-1.233-5.809h.002a15.804 15.804 0 0 0-9.517-8.847 226.022 226.022 0 0 1-14.291-5.366c-2.738-1.135-5.453-1.834-8.75-1.896z"/>
        </g>
        <path d="M20.477 1091.385H-7.912zm-28.389 0a17.011 17.011 0 0 0-15.563 10.146 82.024 82.024 0 0 1-7.258 13.082l-2.212 3.094c-.148.196-.978 1.277-1.244 1.614a17.004 17.004 0 0 0-2.336 17.141 17.007 17.007 0 0 0 10.24 9.52 224.849 224.849 0 0 1 14.214 5.337c2.84 1.177 5.73 1.922 9.187 1.987 4.45.084 7.993-1.116 10.043-1.964 2.925-1.211 6.797-3.315 11.252-7.538 4.983-4.722 9.135-10.662 12.463-16.924 1.98-3.723 3.876-7.956 5.593-12.692a17.013 17.013 0 0 0-1.74-15.082 16.997 16.997 0 0 0-9.579-7.067 16.979 16.979 0 0 0-4.67-.654" style="clip-rule:evenodd;fill:url(#linearGradient119);fill-rule:nonzero;stroke:#292929;stroke-width:2.4px;stroke-linecap:round;stroke-linejoin:round;stroke-miterlimit:1.5;stroke-opacity:.75" id="path3-0"/>
        <g id="touchpad-bottom-left" transform="rotate(180 75.842 608.755)">
          <path d="M16.632 140.739c2.536 7.023 5.469 12.92 8.569 17.841 3.144 4.991 6.807 9.545 11.108 13.247 4.584 3.945 8.378 5.642 10.567 6.449 2.767 1.021 6.272 1.867 10.499 1.531 2.909-.23 5.373-.911 7.801-1.918a225.825 225.825 0 0 1 14.217-5.341 17.015 17.015 0 0 0 11.551-16.781 16.997 16.997 0 0 0-3.652-9.879c-.277-.351-1.105-1.43-1.242-1.612l-2.212-3.093a82.024 82.024 0 0 1-7.258-13.082 17.022 17.022 0 0 0-7.932-8.338 16.984 16.984 0 0 0-7.631-1.808H32.629a17 17 0 0 0-14.057 7.433 17.008 17.008 0 0 0-1.94 15.351Z" style="fill:#65c2dd;fill-opacity:0;fill-rule:nonzero;opacity:1" id="path11"/>
        </g>
        <g id="touchpad-bottom-right" transform="rotate(180 75.842 608.755)">
          <path d="M270.742 117.955h-28.389a17.012 17.012 0 0 0-15.562 10.146 82.102 82.102 0 0 1-7.258 13.082l-2.213 3.093c-.148.198-.978 1.278-1.244 1.615a16.99 16.99 0 0 0-3.662 10.892 17.004 17.004 0 0 0 11.566 15.77 220.882 220.882 0 0 1 14.215 5.336c2.838 1.177 5.73 1.922 9.186 1.987 4.451.084 7.993-1.116 10.043-1.964 2.925-1.211 6.797-3.315 11.253-7.538 4.982-4.722 9.134-10.662 12.462-16.924 1.979-3.723 3.877-7.956 5.593-12.692a17.013 17.013 0 0 0-1.741-15.082 16.997 16.997 0 0 0-9.578-7.067 16.979 16.979 0 0 0-4.671-.654Z" style="fill:#65c2dd;fill-opacity:0;fill-rule:nonzero" id="path12"/>
        </g>
        <g id="touchpad-top-right" transform="translate(-151.685 1027.53)">
          <path d="M32.629 117.955a17 17 0 0 0-14.057 7.433 17.008 17.008 0 0 0-1.94 15.351c2.536 7.023 5.469 12.92 8.569 17.841 3.144 4.991 6.807 9.545 11.108 13.247 4.584 3.946 8.378 5.642 10.567 6.449 2.767 1.022 6.272 1.867 10.499 1.532 2.909-.231 5.373-.912 7.801-1.919a225.825 225.825 0 0 1 14.217-5.341 17.015 17.015 0 0 0 11.551-16.78 17.003 17.003 0 0 0-3.652-9.88c-.277-.351-1.242-1.612-3.454-4.705a82.024 82.024 0 0 1-7.258-13.082 17.022 17.022 0 0 0-7.932-8.338 16.984 16.984 0 0 0-7.631-1.808H32.629Z" style="fill:#65c2dd;fill-opacity:0;fill-rule:nonzero" id="path13"/>
        </g>
      </g>
    </g>
    <g id="g87">
      <g transform="rotate(180 73.821 596.865) scale(1.17028)" id="g15">
        <circle cx="129.561" cy="58.708" r="55.961" style="fill:url(#_Radial7)" id="circle14"/>
      </g>
      <g transform="rotate(180 70.046 593) scale(1.08128)" id="g16">
        <circle cx="129.561" cy="58.708" r="55.961" style="fill:#635b79" id="circle15"/>
      </g>
      <g transform="rotate(180 65.628 591) scale(1.01308)" id="g17">
        <circle cx="129.561" cy="58.708" r="55.961" style="fill:url(#_Linear8)" id="circle16"/>
      </g>
      <g id="g65">
        <g id="g42">
          <g transform="matrix(-.67978 0 0 -.67978 357.152 1279.07)" id="g18">
            <path d="M529.734 204.188a5.75 5.75 0 0 1-5.744-5.744 5.75 5.75 0 0 1 5.744-5.744 5.75 5.75 0 0 1 5.743 5.744 5.75 5.75 0 0 1-5.743 5.744Zm0-10.345a4.607 4.607 0 0 0-4.602 4.602 4.606 4.606 0 0 0 4.602 4.601 4.606 4.606 0 0 0 4.601-4.601 4.606 4.606 0 0 0-4.601-4.602Z" style="fill:#654da4;fill-rule:nonzero" id="path17"/>
          </g>
          <g transform="matrix(-.67978 0 0 -.67978 357.152 1279.07)" id="g19">
            <path d="M532.658 198.444a2.924 2.924 0 1 0-5.848 0 2.924 2.924 0 0 0 5.848 0Z" style="fill:#654da4;fill-rule:nonzero" id="path18"/>
          </g>
          <g transform="matrix(-.67978 0 0 -.67978 357.152 1279.07)" id="g20">
            <path d="m533.796 195.191-.809-.809 6.791-6.788h49.876v1.142H540.25l-6.454 6.455Z" style="fill:#654da4;fill-rule:nonzero" id="path19"/>
          </g>
          <g transform="matrix(-.67978 0 0 -.67978 357.152 1279.07)" id="g21">
            <path d="M550.473 208.413a5.75 5.75 0 0 1-5.744-5.744 5.75 5.75 0 0 1 5.744-5.744 5.75 5.75 0 0 1 5.743 5.744 5.75 5.75 0 0 1-5.743 5.744Zm0-10.345a4.607 4.607 0 0 0-4.602 4.602 4.607 4.607 0 0 0 4.602 4.601 4.606 4.606 0 0 0 4.601-4.601 4.607 4.607 0 0 0-4.601-4.602Z" style="fill:#654da4;fill-rule:nonzero" id="path20"/>
          </g>
          <g transform="matrix(-.67978 0 0 -.67978 357.152 1279.07)" id="g22">
            <path d="M553.396 202.669a2.924 2.924 0 1 1-5.848 0 2.924 2.924 0 0 1 5.848 0Z" style="fill:#654da4;fill-rule:nonzero" id="path21"/>
          </g>
          <g transform="matrix(-.67978 0 0 -.67978 357.152 1279.07)" id="g23">
            <path style="fill:#654da4" id="rect22" d="M555.537 202.098h47.355v1.143h-47.355z"/>
          </g>
          <g transform="matrix(-.67978 0 0 -.67978 357.152 1279.07)" id="g24">
            <path d="M568.891 222.917a5.75 5.75 0 0 1-5.744-5.744 5.75 5.75 0 0 1 5.744-5.744 5.75 5.75 0 0 1 5.744 5.744 5.75 5.75 0 0 1-5.744 5.744Zm0-10.345a4.607 4.607 0 0 0-4.602 4.601 4.608 4.608 0 0 0 4.602 4.602 4.607 4.607 0 0 0 4.602-4.602 4.608 4.608 0 0 0-4.602-4.601Z" style="fill:#654da4;fill-rule:nonzero" id="path23"/>
          </g>
          <g transform="matrix(-.67978 0 0 -.67978 357.152 1279.07)" id="g25">
            <path d="M571.814 217.173a2.924 2.924 0 1 1-5.848 0 2.924 2.924 0 0 1 5.848 0Z" style="fill:#654da4;fill-rule:nonzero" id="path24"/>
          </g>
          <g transform="matrix(-.67978 0 0 -.67978 357.152 1279.07)" id="g26">
            <path style="fill:#654da4" id="rect25" d="M573.955 216.602h28.938v1.143h-28.938z"/>
          </g>
          <g transform="matrix(-.67978 0 0 -.67978 357.152 1213.55)" id="g27">
            <path d="M547.435 132.497a5.75 5.75 0 0 1-5.744-5.744 5.75 5.75 0 0 1 5.744-5.744 5.75 5.75 0 0 1 5.744 5.744 5.75 5.75 0 0 1-5.744 5.744Zm0-10.345a4.607 4.607 0 0 0-4.602 4.601 4.607 4.607 0 0 0 4.602 4.602 4.608 4.608 0 0 0 4.602-4.602 4.608 4.608 0 0 0-4.602-4.601Z" style="fill:#654da4;fill-rule:nonzero" id="path26"/>
          </g>
          <g transform="matrix(-.67978 0 0 -.67978 357.152 1213.55)" id="g28">
            <path d="M550.359 126.753a2.924 2.924 0 1 1-5.848 0 2.924 2.924 0 0 1 5.848 0Z" style="fill:#654da4;fill-rule:nonzero" id="path27"/>
          </g>
          <g transform="matrix(-.67978 0 0 -.67978 357.152 1213.55)" id="g29">
            <path d="M547.435 150.396a5.75 5.75 0 0 1-5.744-5.744 5.75 5.75 0 0 1 5.744-5.744 5.75 5.75 0 0 1 5.744 5.744 5.75 5.75 0 0 1-5.744 5.744Zm0-10.346a4.607 4.607 0 0 0-4.602 4.602 4.607 4.607 0 0 0 4.602 4.602 4.607 4.607 0 0 0 4.602-4.602 4.609 4.609 0 0 0-4.602-4.602Z" style="fill:#654da4;fill-rule:nonzero" id="path28"/>
          </g>
          <g transform="matrix(-.67978 0 0 -.67978 357.152 1213.55)" id="g30">
            <path d="M550.359 144.652a2.924 2.924 0 1 1-5.848 0 2.924 2.924 0 0 1 5.848 0Z" style="fill:#654da4;fill-rule:nonzero" id="path29"/>
          </g>
          <g transform="matrix(-.67978 0 0 -.67978 357.152 1213.55)" id="g31">
            <path d="M602.893 137.604h-45.415l-6.79-6.789.808-.809 6.454 6.455h44.943v1.143Z" style="fill:#654da4;fill-rule:nonzero" id="path30"/>
          </g>
          <g transform="matrix(-.66154 .15642 -.15642 -.66154 369.676 1129.2)" id="g32">
            <path d="M529.734 204.188a5.75 5.75 0 0 1-5.744-5.744 5.75 5.75 0 0 1 5.744-5.744 5.75 5.75 0 0 1 5.743 5.744 5.75 5.75 0 0 1-5.743 5.744Zm0-10.345a4.607 4.607 0 0 0-4.602 4.602 4.606 4.606 0 0 0 4.602 4.601 4.606 4.606 0 0 0 4.601-4.601 4.606 4.606 0 0 0-4.601-4.602Z" style="fill:#654da4;fill-rule:nonzero" id="path31"/>
          </g>
          <g transform="matrix(-.66154 .15642 -.15642 -.66154 369.676 1129.2)" id="g33">
            <path d="M532.658 198.444a2.924 2.924 0 1 0-5.848 0 2.924 2.924 0 0 0 5.848 0Z" style="fill:#654da4;fill-rule:nonzero" id="path32"/>
          </g>
          <g transform="matrix(-.67978 0 0 -.67978 357.152 1213.55)" id="g34">
            <path style="fill:#654da4" id="rect33" d="M552.499 144.081h50.394v1.143h-50.394z"/>
          </g>
          <g transform="matrix(-.67978 0 0 -.67978 360.152 1212.55)" id="g35">
            <path d="M560.71 164.9a5.75 5.75 0 0 1-5.744-5.744 5.75 5.75 0 0 1 5.744-5.744 5.75 5.75 0 0 1 5.743 5.744 5.75 5.75 0 0 1-5.743 5.744Zm0-10.345a4.607 4.607 0 0 0-4.602 4.602 4.607 4.607 0 0 0 4.602 4.602 4.606 4.606 0 0 0 4.601-4.602 4.606 4.606 0 0 0-4.601-4.602Z" style="fill:#654da4;fill-rule:nonzero" id="path34"/>
          </g>
          <g transform="matrix(-.67978 0 0 -.67978 360.152 1212.55)" id="g36">
            <path d="M563.633 159.156a2.924 2.924 0 1 1-5.848 0 2.924 2.924 0 0 1 5.848 0Z" style="fill:#654da4;fill-rule:nonzero" id="path35"/>
          </g>
          <g transform="matrix(-.67978 0 0 -.67978 360.152 1212.55)" id="g37">
            <path style="fill:#654da4" id="rect36" d="M565.775 158.585h37.118v1.143h-37.118z"/>
          </g>
          <g transform="matrix(-.67978 0 0 -.67978 357.152 1213.55)" id="g38">
            <path d="M537.46 179.405a5.75 5.75 0 0 1-5.744-5.744 5.75 5.75 0 0 1 5.744-5.744 5.75 5.75 0 0 1 5.744 5.744 5.75 5.75 0 0 1-5.744 5.744Zm0-10.346a4.607 4.607 0 0 0-4.602 4.602 4.607 4.607 0 0 0 4.602 4.602 4.607 4.607 0 0 0 4.602-4.602 4.608 4.608 0 0 0-4.602-4.602Z" style="fill:#654da4;fill-rule:nonzero" id="path37"/>
          </g>
          <g transform="matrix(-.67978 0 0 -.67978 357.152 1213.55)" id="g39">
            <path d="M540.384 173.661a2.924 2.924 0 1 1-5.848 0 2.924 2.924 0 0 1 5.848 0Z" style="fill:#654da4;fill-rule:nonzero" id="path38"/>
          </g>
          <g transform="matrix(-.56383 0 0 -.67978 294.243 1213.55)" id="g40">
            <path style="fill:#654da4" id="rect39" d="M542.525 173.089h60.368v1.143h-60.368z"/>
          </g>
          <g transform="matrix(-.66154 .15642 -.15642 -.66154 369.676 1129.2)" id="g41">
            <path d="m533.796 195.191-.809-.809 6.791-6.788h39.199v1.142H540.25l-6.454 6.455Z" style="fill:#654da4;fill-rule:nonzero" id="path40"/>
          </g>
        </g>
        <g id="g64">
          <g transform="matrix(.67978 0 0 .67978 -366.745 1005.34)" id="g43">
            <path d="M547.435 132.497a5.75 5.75 0 0 1-5.744-5.744 5.75 5.75 0 0 1 5.744-5.744 5.75 5.75 0 0 1 5.744 5.744 5.75 5.75 0 0 1-5.744 5.744Zm0-10.345a4.607 4.607 0 0 0-4.602 4.601 4.607 4.607 0 0 0 4.602 4.602 4.608 4.608 0 0 0 4.602-4.602 4.608 4.608 0 0 0-4.602-4.601Z" style="fill:#654da4;fill-rule:nonzero" id="path42"/>
          </g>
          <g transform="matrix(.67978 0 0 .67978 -366.745 1005.34)" id="g44">
            <path d="M550.359 126.753a2.924 2.924 0 1 1-5.848 0 2.924 2.924 0 0 1 5.848 0Z" style="fill:#654da4;fill-rule:nonzero" id="path43"/>
          </g>
          <g transform="matrix(.67978 0 0 .67978 -355.918 1009.02)" id="g45">
            <path d="M547.435 150.396a5.75 5.75 0 0 1-5.744-5.744 5.75 5.75 0 0 1 5.744-5.744 5.75 5.75 0 0 1 5.744 5.744 5.75 5.75 0 0 1-5.744 5.744Zm0-10.346a4.607 4.607 0 0 0-4.602 4.602 4.607 4.607 0 0 0 4.602 4.602 4.607 4.607 0 0 0 4.602-4.602 4.609 4.609 0 0 0-4.602-4.602Z" style="fill:#654da4;fill-rule:nonzero" id="path44"/>
          </g>
          <g transform="matrix(.67978 0 0 .67978 -355.918 1009.02)" id="g46">
            <path d="M550.359 144.652a2.924 2.924 0 1 1-5.848 0 2.924 2.924 0 0 1 5.848 0Z" style="fill:#654da4;fill-rule:nonzero" id="path45"/>
          </g>
          <g transform="matrix(.67978 0 0 .67978 -366.745 1005.34)" id="g47">
            <path d="M602.893 137.604h-45.415l-6.79-6.789.808-.809 6.454 6.455h44.943v1.143Z" style="fill:#654da4;fill-rule:nonzero" id="path46"/>
          </g>
          <g transform="matrix(.67978 0 0 .67978 -348.712 1009.02)" id="g48">
            <path d="M529.734 204.188a5.75 5.75 0 0 1-5.744-5.744 5.75 5.75 0 0 1 5.744-5.744 5.75 5.75 0 0 1 5.743 5.744 5.75 5.75 0 0 1-5.743 5.744Zm0-10.345a4.607 4.607 0 0 0-4.602 4.602 4.606 4.606 0 0 0 4.602 4.601 4.606 4.606 0 0 0 4.601-4.601 4.606 4.606 0 0 0-4.601-4.602Z" style="fill:#654da4;fill-rule:nonzero" id="path47"/>
          </g>
          <g transform="matrix(.67978 0 0 .67978 -348.712 1009.02)" id="g49">
            <path d="M532.658 198.444a2.924 2.924 0 1 0-5.848 0 2.924 2.924 0 0 0 5.848 0Z" style="fill:#654da4;fill-rule:nonzero" id="path48"/>
          </g>
          <g transform="matrix(.67978 0 0 .67978 -355.918 1009.02)" id="g50">
            <path style="fill:#654da4" id="rect49" d="M552.499 144.081h50.394v1.143h-50.394z"/>
          </g>
          <g transform="matrix(.67978 0 0 .67978 -353.712 1009.02)" id="g51">
            <path d="M560.71 164.9a5.75 5.75 0 0 1-5.744-5.744 5.75 5.75 0 0 1 5.744-5.744 5.75 5.75 0 0 1 5.743 5.744 5.75 5.75 0 0 1-5.743 5.744Zm0-10.345a4.607 4.607 0 0 0-4.602 4.602 4.607 4.607 0 0 0 4.602 4.602 4.606 4.606 0 0 0 4.601-4.602 4.606 4.606 0 0 0-4.601-4.602Z" style="fill:#654da4;fill-rule:nonzero" id="path50"/>
          </g>
          <g transform="matrix(.67978 0 0 .67978 -353.712 1009.02)" id="g52">
            <path d="M563.633 159.156a2.924 2.924 0 1 1-5.848 0 2.924 2.924 0 0 1 5.848 0Z" style="fill:#654da4;fill-rule:nonzero" id="path51"/>
          </g>
          <g transform="matrix(.67978 0 0 .67978 -353.712 1009.02)" id="g53">
            <path style="fill:#654da4" id="rect52" d="M565.775 158.585h37.118v1.143h-37.118z"/>
          </g>
          <g transform="matrix(.67978 0 0 .67978 -348.712 1009.02)" id="g54">
            <path d="M537.46 179.405a5.75 5.75 0 0 1-5.744-5.744 5.75 5.75 0 0 1 5.744-5.744 5.75 5.75 0 0 1 5.744 5.744 5.75 5.75 0 0 1-5.744 5.744Zm0-10.346a4.607 4.607 0 0 0-4.602 4.602 4.607 4.607 0 0 0 4.602 4.602 4.607 4.607 0 0 0 4.602-4.602 4.608 4.608 0 0 0-4.602-4.602Z" style="fill:#654da4;fill-rule:nonzero" id="path53"/>
          </g>
          <g transform="matrix(.67978 0 0 .67978 -348.712 1009.02)" id="g55">
            <path d="M540.384 173.661a2.924 2.924 0 1 1-5.848 0 2.924 2.924 0 0 1 5.848 0Z" style="fill:#654da4;fill-rule:nonzero" id="path54"/>
          </g>
          <g transform="matrix(.50071 0 0 .67978 -251.562 1009.02)" id="g56">
            <path style="fill:#654da4" id="rect55" d="M542.525 173.089h60.368v1.143h-60.368z"/>
          </g>
          <g transform="matrix(.67978 0 0 .67978 -348.712 1009.02)" id="g57">
            <path d="m533.796 195.191-.809-.809 6.791-6.788h47.213v1.142H540.25l-6.454 6.455Z" style="fill:#654da4;fill-rule:nonzero" id="path56"/>
          </g>
          <g transform="matrix(.67978 0 0 .67978 -351.666 1009.02)" id="g58">
            <path d="M550.473 208.413a5.75 5.75 0 0 1-5.744-5.744 5.75 5.75 0 0 1 5.744-5.744 5.75 5.75 0 0 1 5.743 5.744 5.75 5.75 0 0 1-5.743 5.744Zm0-10.345a4.607 4.607 0 0 0-4.602 4.602 4.607 4.607 0 0 0 4.602 4.601 4.606 4.606 0 0 0 4.601-4.601 4.607 4.607 0 0 0-4.601-4.602Z" style="fill:#654da4;fill-rule:nonzero" id="path57"/>
          </g>
          <g transform="matrix(.67978 0 0 .67978 -351.666 1009.02)" id="g59">
            <path d="M553.396 202.669a2.924 2.924 0 1 1-5.848 0 2.924 2.924 0 0 1 5.848 0Z" style="fill:#654da4;fill-rule:nonzero" id="path58"/>
          </g>
          <g transform="matrix(.49278 0 0 .67978 -247.775 1009.02)" id="g60">
            <path style="fill:#654da4" id="rect59" d="M555.537 202.098h47.355v1.143h-47.355z"/>
          </g>
          <g transform="scale(.67978) rotate(30 -2324.955 -51.338)" id="g61">
            <path d="M529.734 204.188a5.75 5.75 0 0 1-5.744-5.744 5.75 5.75 0 0 1 5.744-5.744 5.75 5.75 0 0 1 5.743 5.744 5.75 5.75 0 0 1-5.743 5.744Zm0-10.345a4.607 4.607 0 0 0-4.602 4.602 4.606 4.606 0 0 0 4.602 4.601 4.606 4.606 0 0 0 4.601-4.601 4.606 4.606 0 0 0-4.601-4.602Z" style="fill:#654da4;fill-rule:nonzero" id="path60"/>
          </g>
          <g transform="scale(.67978) rotate(30 -2324.955 -51.338)" id="g62">
            <path d="M532.658 198.444a2.924 2.924 0 1 0-5.848 0 2.924 2.924 0 0 0 5.848 0Z" style="fill:#654da4;fill-rule:nonzero" id="path61"/>
          </g>
          <g transform="scale(.67978) rotate(30 -2324.955 -51.338)" id="g63">
            <path d="m533.796 195.191-.809-.809 6.791-6.788h39.199v1.142H540.25l-6.454 6.455Z" style="fill:#654da4;fill-rule:nonzero" id="path62"/>
          </g>
        </g>
      </g>
      <g id="g75">
        <g id="g72">
          <g id="g68">
            <g transform="matrix(1 0 0 3.4801 -151.685 818.086)" id="g66">
              <path d="M144.197 83c.001-.453 1.344-.825 2.976-.825s2.975.372 2.976.825v9.001c0 .453-1.343.826-2.976.826-1.632 0-2.976-.373-2.976-.826V83Z" style="fill:url(#_Linear9)" id="path65"/>
            </g>
            <g transform="matrix(1 0 0 3.4801 -142.661 818.086)" id="g67">
              <path d="M144.197 83c.001-.453 1.344-.825 2.976-.825s2.975.372 2.976.825v9.001c0 .453-1.343.826-2.976.826-1.632 0-2.976-.373-2.976-.826V83Z" style="fill:url(#_Linear10)" id="path66"/>
            </g>
          </g>
          <g id="g71">
            <g transform="matrix(1 0 0 3.4801 -151.685 818.086)" id="g69">
              <path d="M144.197 83c.001-.453 1.344-.825 2.976-.825s2.975.372 2.976.825v9.001c0 .453-1.343.826-2.976.826-1.632 0-2.976-.373-2.976-.826V83Z" style="fill:url(#_Linear11)" id="path68"/>
            </g>
            <g transform="matrix(1 0 0 3.4801 -142.661 818.086)" id="g70">
              <path d="M144.197 83c.001-.453 1.344-.825 2.976-.825s2.975.372 2.976.825v9.001c0 .453-1.343.826-2.976.826-1.632 0-2.976-.373-2.976-.826V83Z" style="fill:url(#_Linear12)" id="path69"/>
            </g>
          </g>
        </g>
        <g id="path154" transform="rotate(-180 0 1122.52)">
          <path style="fill:url(#_Linear13);fill-rule:nonzero" id="rect72" d="M-7.488 1115.8H7.488v13.44H-7.488z"/>
        </g>
        <g id="path165" transform="rotate(-180 0 1122.52)">
          <path d="M6.642 1138.14c0-1.13-.962-2.06-2.13-2.06s-2.13.93-2.13 2.06.962 2.05 2.13 2.05 2.13-.92 2.13-2.05Z" style="fill:#ffdfb5;fill-rule:nonzero" id="path72"/>
        </g>
        <g id="path1651" transform="rotate(-180 4.512 1122.52)">
          <path d="M6.642 1138.14c0-1.13-.962-2.06-2.13-2.06s-2.13.93-2.13 2.06.962 2.05 2.13 2.05 2.13-.92 2.13-2.05Z" style="fill:#ffdfb5;fill-rule:nonzero" id="path73"/>
        </g>
        <g id="path171" transform="rotate(-180 0 1122.52)">
          <path d="M2.382 1106.9c0 1.13.962 2.06 2.13 2.06s2.13-.93 2.13-2.06-.962-2.05-2.13-2.05-2.13.92-2.13 2.05Z" style="fill:#ffdfb5;fill-rule:nonzero" id="path74"/>
        </g>
        <g id="path1711" transform="rotate(-180 4.512 1122.52)">
          <path d="M2.382 1106.9c0 1.13.962 2.06 2.13 2.06s2.13-.93 2.13-2.06-.962-2.05-2.13-2.05-2.13.92-2.13 2.05Z" style="fill:#ffdfb5;fill-rule:nonzero" id="path75"/>
        </g>
      </g>
      <g transform="rotate(180 70.046 593) scale(1.08128)" id="g76">
        <path d="M160.798 96.104a10.241 10.241 0 0 1 6.611-2.42c2.713-.026 5.847-.026 5.847-.026-10.259 12.805-26.026 21.011-43.695 21.011-17.668 0-33.435-8.206-43.694-21.011h5.847c2.426 0 4.774.86 6.627 2.427a48.36 48.36 0 0 0 31.22 11.357c11.882 0 22.776-4.261 31.237-11.338Z" style="fill:url(#_Linear14)" id="path76"/>
      </g>
      <g transform="matrix(-.6927 0 0 -.6927 89.747 1163.19)" id="g77">
        <path d="M129.563-28.646c-48.212 0-87.356 39.142-87.356 87.354 0 19.355 6.309 37.249 16.981 51.735 0 0 15.059-3.123 30.594-3.862a3.624 3.624 0 0 0 2.339-6.306C80.75 90.035 73.6 75.2 73.6 58.708c0-18.011 8.527-34.046 21.761-44.285h68.402c13.234 10.239 21.761 26.274 21.761 44.285 0 16.492-7.15 31.327-18.516 41.573a3.613 3.613 0 0 0 2.334 6.29c15.535.749 30.594 3.872 30.594 3.872 10.672-14.486 16.981-32.38 16.981-51.735 0-48.212-39.142-87.354-87.354-87.354Z" style="fill:url(#_Linear15)" id="path77"/>
      </g>
      <g transform="matrix(-.6927 0 0 -.6927 89.747 1163.19)" id="g78">
        <path d="M84.411 106.926C71.212 94.749 62.939 77.31 62.939 57.954c0-36.771 29.853-66.623 66.624-66.623 36.77 0 66.623 29.852 66.623 66.623 0 19.353-8.27 36.789-21.465 48.966a166.38 166.38 0 0 0-5.379-.349 3.612 3.612 0 0 1-2.334-6.29c11.366-10.246 18.516-25.081 18.516-41.573 0-18.011-8.527-34.046-21.761-44.285H95.361C82.127 24.662 73.6 40.697 73.6 58.708c0 16.492 7.15 31.327 18.521 41.567a3.622 3.622 0 0 1-2.339 6.306c-1.804.086-3.602.204-5.371.345Z" style="fill:url(#_Linear16)" id="path78"/>
      </g>
      <g id="g86">
        <g transform="translate(-151.685 1031.31)" id="g85" style="fill:purple;stroke:#510051;stroke-opacity:1">
          <path d="M109.354 89.318v3.78-.001a3.781 3.781 0 0 1-3.779 3.78 3.782 3.782 0 0 1-3.78-3.78v.001-3.78a3.782 3.782 0 0 1 3.78-3.78 3.781 3.781 0 0 1 3.779 3.78Z" style="fill:#00b7eb;stroke:#006c91;stroke-width:.72px;stroke-linecap:butt;stroke-linejoin:miter;stroke-miterlimit:4;stroke-opacity:1;fill-opacity:1" id="path85"/>
        </g>
      </g>
    </g>
  </g>
  <defs id="defs119">
    <linearGradient id="_Linear1" x1="0" y1="0" x2="1" y2="0" gradientUnits="userSpaceOnUse" gradientTransform="matrix(-221 189.974 -189.974 -221 250.37 0)">
      <stop offset="0" style="stop-color:#606060;stop-opacity:1" id="stop87"/>
      <stop offset="1" style="stop-color:#e4e4e4;stop-opacity:1" id="stop88"/>
    </linearGradient>
    <linearGradient id="_Linear2" x1="0" y1="0" x2="1" y2="0" gradientUnits="userSpaceOnUse" gradientTransform="matrix(-234 189.974 -189.974 -234 268.37 0)">
      <stop offset="0" style="stop-color:#717178;stop-opacity:1" id="stop89"/>
      <stop offset="1" style="stop-color:#a8b1b5;stop-opacity:1" id="stop90"/>
    </linearGradient>
    <linearGradient id="_Linear3" x1="0" y1="0" x2="1" y2=".228" gradientUnits="userSpaceOnUse" gradientTransform="matrix(66.5671 -56.7551 42.5304 88.8311 20.806 69.434)">
      <stop offset="0" style="stop-color:#565656;stop-opacity:.75" id="stop91"/>
      <stop offset="1" style="stop-color:#9b9b9b;stop-opacity:.75" id="stop92"/>
    </linearGradient>
    <linearGradient id="_Linear4" x1="0" y1="0" x2="1" y2=".228" gradientUnits="userSpaceOnUse" gradientTransform="matrix(66.5635 -56.7565 42.5281 88.8334 20.806 177.297)">
      <stop offset="0" style="stop-color:#565656;stop-opacity:.75" id="stop93"/>
      <stop offset="1" style="stop-color:#9b9b9b;stop-opacity:.75" id="stop94"/>
    </linearGradient>
    <linearGradient id="_Linear5" x1="0" y1="0" x2="1" y2=".228" gradientUnits="userSpaceOnUse" gradientTransform="matrix(66.5671 -56.7552 42.5304 88.8313 217.596 177.295)">
      <stop offset="0" style="stop-color:#565656;stop-opacity:.75" id="stop95"/>
      <stop offset="1" style="stop-color:#9b9b9b;stop-opacity:.75" id="stop96"/>
    </linearGradient>
    <linearGradient id="_Linear6" x1="0" y1="0" x2="1" y2=".228" gradientUnits="userSpaceOnUse" gradientTransform="matrix(66.5635 -56.7565 42.5281 88.8333 20.806 177.297)">
      <stop offset="0" style="stop-color:#565656;stop-opacity:.75" id="stop97"/>
      <stop offset="1" style="stop-color:#9b9b9b;stop-opacity:.75" id="stop98"/>
    </linearGradient>
    <linearGradient id="_Linear8" x1="0" y1="0" x2="1" y2="0" gradientUnits="userSpaceOnUse" gradientTransform="rotate(133.278 81.637 42.76) scale(125.1687)">
      <stop offset="0" style="stop-color:#16036c;stop-opacity:1" id="stop102"/>
      <stop offset="1" style="stop-color:#5a22ac;stop-opacity:1" id="stop103"/>
    </linearGradient>
    <linearGradient id="_Linear9" x1="0" y1="0" x2="1" y2="0" gradientUnits="userSpaceOnUse" gradientTransform="scale(58.9562 16.9409) rotate(-45 7.887 -.02)">
      <stop offset="0" style="stop-color:#e3952e;stop-opacity:1" id="stop104"/>
      <stop offset="1" style="stop-color:#eabe84;stop-opacity:1" id="stop105"/>
    </linearGradient>
    <linearGradient id="_Linear10" x1="0" y1="0" x2="1" y2="0" gradientUnits="userSpaceOnUse" gradientTransform="scale(58.9562 16.9409) rotate(-45 7.81 .165)">
      <stop offset="0" style="stop-color:#e3952e;stop-opacity:1" id="stop106"/>
      <stop offset="1" style="stop-color:#eabe84;stop-opacity:1" id="stop107"/>
    </linearGradient>
    <linearGradient id="_Linear11" x1="0" y1="0" x2="1" y2="0" gradientUnits="userSpaceOnUse" gradientTransform="scale(58.9562 16.9409) rotate(-45 7.887 -.02)">
      <stop offset="0" style="stop-color:#e3952e;stop-opacity:1" id="stop108"/>
      <stop offset="1" style="stop-color:#eabe84;stop-opacity:1" id="stop109"/>
    </linearGradient>
    <linearGradient id="_Linear12" x1="0" y1="0" x2="1" y2="0" gradientUnits="userSpaceOnUse" gradientTransform="scale(58.9562 16.9409) rotate(-45 7.81 .165)">
      <stop offset="0" style="stop-color:#e3952e;stop-opacity:1" id="stop110"/>
      <stop offset="1" style="stop-color:#eabe84;stop-opacity:1" id="stop111"/>
    </linearGradient>
    <linearGradient id="_Linear13" x1="0" y1="0" x2="1" y2="0" gradientUnits="userSpaceOnUse" gradientTransform="rotate(136.914 -211.054 557.576) scale(35.9362)">
      <stop offset="0" style="stop-color:#a16617;stop-opacity:1" id="stop112"/>
      <stop offset="1" style="stop-color:#c99b5d;stop-opacity:1" id="stop113"/>
    </linearGradient>
    <linearGradient id="_Linear14" x1="0" y1="0" x2="1" y2="0" gradientUnits="userSpaceOnUse" gradientTransform="scale(-62.3952) rotate(-45 -2.3 1.887)">
      <stop offset="0" style="stop-color:#aaa9af;stop-opacity:1" id="stop114"/>
      <stop offset="1" style="stop-color:#d3cfdb;stop-opacity:1" id="stop115"/>
    </linearGradient>
    <linearGradient id="_Linear15" x1="0" y1="0" x2="1" y2="0" gradientUnits="userSpaceOnUse" gradientTransform="scale(-216.795) rotate(-49.029 -.335 1.046)">
      <stop offset="0" style="stop-color:#9e9da0;stop-opacity:1" id="stop116"/>
      <stop offset="1" style="stop-color:#e3e3e3;stop-opacity:1" id="stop117"/>
    </linearGradient>
    <linearGradient id="_Linear16" x1="0" y1="0" x2="1" y2=".086" gradientUnits="userSpaceOnUse" gradientTransform="matrix(-108.412 136.041 -124.842 -118.137 180.375 -4.09)">
      <stop offset="0" style="stop-color:#8f8d92;stop-opacity:1" id="stop118"/>
      <stop offset="1" style="stop-color:#d7d7d7;stop-opacity:1" id="stop119"/>
    </linearGradient>
    <linearGradient xlink:href="#_Linear3" id="linearGradient119" gradientUnits="userSpaceOnUse" gradientTransform="matrix(-66.5671 56.7551 -42.5304 -88.8311 32.3 1093.97)" x1="0" y1="0" x2="1" y2=".228"/>
    <radialGradient id="_Radial7" cx="0" cy="0" r="1" gradientUnits="userSpaceOnUse" gradientTransform="rotate(-75.649 100.698 -53.916) scale(52.4304)">
      <stop offset="0" style="stop-color:#393640;stop-opacity:.85" id="stop99"/>
      <stop offset=".56" style="stop-color:#2d2b33;stop-opacity:.68" id="stop100"/>
      <stop offset="1" style="stop-color:black;stop-opacity:0" id="stop101"/>
    </radialGradient>
  </defs>
</svg>
