<?xml version="1.0" encoding="UTF-8" standalone="no"?>
<!DOCTYPE svg PUBLIC "-//W3C//DTD SVG 1.1//EN" "http://www.w3.org/Graphics/SVG/1.1/DTD/svg11.dtd">
<svg width="100%" height="100%" viewBox="0 0 304 190" version="1.1" xmlns="http://www.w3.org/2000/svg" xmlns:xlink="http://www.w3.org/1999/xlink" xml:space="preserve" xmlns:serif="http://www.serif.com/" style="fill-rule:evenodd;clip-rule:evenodd;stroke-linecap:round;stroke-linejoin:round;stroke-miterlimit:1.5;">
    <g id="_0" serif:id="0" transform="matrix(1,0,0,1,151.685,-1027.53)">
        <g transform="matrix(-1,-1.22465e-16,1.22465e-16,-1,-7.90528e-07,2245.04)">
            <g id="outer-loop" transform="matrix(1,0,0,1,-151.685,1027.53)">
                <path d="M70.895,186.676C79.619,183.055 89.275,179.744 99.669,177.097C113.235,173.642 128.071,171.36 143.176,170.749C158.909,170.114 174.87,171.31 189.759,174.045C205.473,176.931 219.957,181.48 232.475,186.676C235.926,188.108 239.614,189.058 243.448,189.366C247.336,189.678 251.37,189.315 255.329,188.235C260.095,186.935 264.726,184.598 268.921,181.535C271.87,179.382 274.611,176.881 277.123,174.153C284.041,166.64 289.211,157.546 293.067,148.087C297.913,136.201 300.749,123.621 302.052,110.943C303.187,99.899 303.142,88.752 301.911,77.719C300.991,69.463 299.402,61.265 297.04,53.264C294.967,46.244 292.297,39.368 288.882,32.847C285.702,26.777 281.866,21.002 277.251,15.961C273.03,11.349 268.128,7.369 262.752,4.629C258.151,2.284 253.222,0.884 248.374,0.57C242.802,0.209 237.386,1.26 232.475,3.298C223.751,6.919 214.096,10.23 203.702,12.877C190.136,16.332 175.299,18.614 160.194,19.225C144.461,19.86 128.5,18.664 113.612,15.929C97.897,13.043 83.414,8.494 70.895,3.298C67.444,1.866 63.756,0.916 59.923,0.608C56.035,0.296 52,0.659 48.041,1.739C43.275,3.039 38.644,5.376 34.449,8.439C31.5,10.592 28.759,13.093 26.247,15.821C19.329,23.334 14.159,32.428 10.303,41.887C5.458,53.773 2.622,66.353 1.318,79.03C0.183,90.075 0.228,101.222 1.459,112.255C2.38,120.511 3.968,128.709 6.33,136.71C8.403,143.73 11.073,150.606 14.489,157.127C17.668,163.197 21.505,168.972 26.119,174.013C30.34,178.625 35.242,182.605 40.619,185.345C45.219,187.69 50.149,189.09 54.996,189.404C60.568,189.765 65.984,188.714 70.895,186.676Z" style="fill:url(#_Linear1);fill-rule:nonzero;"/>
            </g>
            <g id="inner-loop" transform="matrix(1,0,0,1,-151.685,1027.53)">
                <path d="M235.231,185.035C222.285,179.666 207.307,174.965 191.057,171.982C175.661,169.157 159.155,167.92 142.886,168.577C127.266,169.208 111.924,171.566 97.895,175.136C87.147,177.871 77.161,181.293 68.139,185.035C63.571,186.928 58.614,187.883 53.509,187.552C49.067,187.265 44.529,185.986 40.226,183.794C35.197,181.233 30.523,177.459 26.454,173.017C22.006,168.16 18.255,162.531 15.134,156.575C11.781,150.176 9.141,143.388 7.088,136.437C4.748,128.516 3.168,120.373 2.253,112.164C1.029,101.195 0.984,90.096 2.113,79.114C3.409,66.507 6.235,54.014 11.015,42.293C14.819,32.965 19.91,24.059 26.577,16.822C28.998,14.195 31.622,11.805 34.417,9.766C38.393,6.864 42.721,4.694 47.118,3.496C50.77,2.5 54.458,2.171 58.022,2.457C61.536,2.738 64.93,3.609 68.139,4.939C81.085,10.308 96.064,15.009 112.314,17.992C127.71,20.817 144.215,22.054 160.484,21.397C176.104,20.766 191.446,18.408 205.475,14.838C216.224,12.102 226.209,8.681 235.232,4.939C239.799,3.045 244.756,2.091 249.862,2.422C254.303,2.709 258.842,3.988 263.144,6.18C268.173,8.741 272.848,12.514 276.916,16.957C281.365,21.814 285.115,27.443 288.236,33.399C291.589,39.798 294.229,46.586 296.282,53.537C298.622,61.458 300.202,69.601 301.118,77.81C302.341,88.779 302.387,99.878 301.257,110.86C299.961,123.467 297.135,135.96 292.355,147.681C288.551,157.009 283.46,165.915 276.793,173.151C274.372,175.779 271.748,178.169 268.953,180.208C264.977,183.11 260.649,185.28 256.252,186.478C252.6,187.473 248.912,187.803 245.348,187.517C241.835,187.236 238.441,186.365 235.231,185.035Z" style="fill:url(#_Linear2);fill-rule:nonzero;"/>
            </g>
            <g>
                <g id="touchpad-top-lefttouchpad-top-right-mask" transform="matrix(-1,1.22465e-16,-1.22465e-16,-1,151.685,1217.51)">
                    <path d="M32.628,72.019L61.017,72.019L32.628,72.019ZM61.017,72.019C63.318,72.019 65.66,71.552 67.881,70.573C69.782,69.734 71.562,68.533 73.096,66.985C73.821,66.254 74.483,65.453 75.072,64.589C75.655,63.734 76.16,62.825 76.58,61.873C78.594,57.304 81.023,52.925 83.838,48.791L86.05,45.697C86.198,45.501 87.028,44.42 87.294,44.083C88.501,42.556 89.428,40.845 90.048,39.031C90.702,37.114 90.996,35.135 90.956,33.191C90.912,30.989 90.442,28.873 89.63,26.942C88.693,24.715 87.312,22.754 85.613,21.154C83.836,19.48 81.714,18.205 79.391,17.421C74.429,15.746 69.685,13.955 65.176,12.085C62.337,10.908 59.446,10.163 55.989,10.098C51.539,10.014 47.996,11.214 45.946,12.062C43.021,13.273 39.149,15.377 34.694,19.6C29.711,24.322 25.559,30.262 22.231,36.524C20.252,40.247 18.355,44.48 16.638,49.216C16.089,50.732 15.765,52.296 15.659,53.865C15.542,55.6 15.695,57.277 16.058,58.843C16.528,60.878 17.346,62.712 18.379,64.298C19.784,66.453 21.61,68.191 23.661,69.463C24.998,70.293 26.444,70.933 27.957,71.365C29.453,71.793 31.024,72.019 32.628,72.019" style="fill:url(#_Linear3);fill-rule:nonzero;stroke:rgb(41,41,41);stroke-opacity:0.75;stroke-width:2.4px;"/>
                </g>
                <g id="touchpad-bottom-lefttouchpad-top-right-mask" transform="matrix(-1,1.22465e-16,-1.22465e-16,-1,151.685,1217.51)">
                    <path d="M16.632,140.739C19.168,147.762 22.101,153.659 25.201,158.58C28.345,163.571 32.008,168.125 36.309,171.827C40.893,175.772 44.687,177.469 46.876,178.276C49.643,179.297 53.148,180.143 57.375,179.807C60.284,179.577 62.748,178.896 65.176,177.889C69.688,176.018 74.432,174.224 79.393,172.548C81.791,171.737 83.973,170.404 85.784,168.649C87.552,166.936 88.962,164.826 89.864,162.432C90.645,160.361 91.035,158.1 90.944,155.767C90.875,154.017 90.535,152.255 89.907,150.553C89.291,148.88 88.411,147.304 87.292,145.888C87.015,145.537 86.187,144.458 86.05,144.276L83.838,141.183C81.023,137.049 78.594,132.67 76.58,128.101C75.794,126.32 74.717,124.704 73.407,123.311C72.011,121.826 70.392,120.638 68.648,119.763C67.447,119.16 66.199,118.711 64.934,118.412C63.632,118.104 62.317,117.955 61.017,117.955L32.629,117.955C29.856,117.955 27.175,118.631 24.794,119.867C22.279,121.172 20.147,123.075 18.572,125.388C17.31,127.241 16.429,129.32 15.974,131.515C15.671,132.983 15.55,134.541 15.663,136.149C15.771,137.697 16.092,139.242 16.632,140.739Z" style="fill:url(#_Linear4);fill-rule:nonzero;"/>
                    <path d="M61.017,115.557C62.5,115.557 64.001,115.727 65.486,116.079C66.929,116.42 68.354,116.932 69.724,117.62C71.713,118.619 73.561,119.975 75.154,121.668C76.648,123.257 77.878,125.102 78.773,127.134C80.725,131.561 83.078,135.805 85.804,139.812L87.968,142.837C87.973,142.843 87.977,142.85 87.982,142.856C87.988,142.863 87.993,142.871 87.998,142.878C88.195,143.137 88.92,144.081 89.173,144.401C90.45,146.017 91.454,147.815 92.157,149.723C92.873,151.666 93.261,153.676 93.34,155.673C93.444,158.335 92.998,160.915 92.108,163.278C91.079,166.009 89.47,168.417 87.453,170.371C85.387,172.373 82.897,173.895 80.16,174.819C75.252,176.478 70.558,178.253 66.094,180.104C63.439,181.204 60.745,181.945 57.565,182.197C52.928,182.566 49.082,181.646 46.046,180.526C43.707,179.663 39.645,177.861 34.745,173.644C30.267,169.789 26.445,165.055 23.172,159.858C19.991,154.808 16.979,148.76 14.377,141.553C13.761,139.845 13.395,138.083 13.271,136.316C13.143,134.482 13.28,132.704 13.627,131.029C14.145,128.525 15.151,126.153 16.591,124.039C18.388,121.4 20.82,119.228 23.689,117.739C26.406,116.329 29.465,115.557 32.629,115.557L60.989,115.557C60.998,115.557 61.008,115.557 61.017,115.557ZM16.632,140.739C19.168,147.762 22.101,153.659 25.201,158.58C28.345,163.571 32.008,168.125 36.309,171.827C40.893,175.772 44.687,177.469 46.876,178.276C49.643,179.297 53.148,180.143 57.375,179.807C60.284,179.577 62.748,178.896 65.176,177.889C69.688,176.018 74.432,174.224 79.393,172.548C81.791,171.737 83.973,170.404 85.784,168.649C87.552,166.936 88.962,164.826 89.864,162.432C90.645,160.361 91.035,158.1 90.944,155.767C90.875,154.017 90.535,152.255 89.907,150.553C89.291,148.88 88.411,147.304 87.292,145.888C87.015,145.537 86.187,144.458 86.05,144.276L83.838,141.183C81.023,137.049 78.594,132.67 76.58,128.101C75.794,126.32 74.717,124.704 73.407,123.311C72.011,121.826 70.392,120.638 68.648,119.763C67.447,119.16 66.199,118.711 64.934,118.412C63.632,118.104 62.317,117.955 61.017,117.955L32.629,117.955C29.856,117.955 27.175,118.631 24.794,119.867C22.279,121.172 20.147,123.075 18.572,125.388C17.31,127.241 16.429,129.32 15.974,131.515C15.671,132.983 15.55,134.541 15.663,136.149C15.771,137.697 16.092,139.242 16.632,140.739Z" style="fill:rgb(41,41,41);fill-opacity:0.75;"/>
                </g>
                <g id="touchpad-bottom-touchpad-top-right-mask" transform="matrix(-1,1.22465e-16,-1.22465e-16,-1,151.685,1217.51)">
                    <path d="M270.742,117.955L242.353,117.955C240.052,117.955 237.71,118.421 235.49,119.401C233.588,120.24 231.809,121.441 230.274,122.989C229.549,123.72 228.887,124.521 228.299,125.385C227.716,126.24 227.211,127.149 226.791,128.101C224.776,132.67 222.348,137.049 219.533,141.183L217.32,144.276C217.172,144.474 216.342,145.554 216.076,145.891C214.869,147.418 213.942,149.128 213.323,150.943C212.668,152.86 212.374,154.839 212.414,156.783C212.458,158.985 212.928,161.101 213.741,163.032C214.677,165.259 216.059,167.22 217.757,168.82C219.535,170.494 221.656,171.769 223.98,172.553C230.46,174.74 235.291,176.685 238.195,177.889C241.033,179.066 243.925,179.811 247.381,179.876C251.832,179.96 255.374,178.76 257.424,177.912C260.349,176.701 264.221,174.597 268.677,170.374C273.659,165.652 277.811,159.712 281.139,153.45C283.118,149.727 285.016,145.494 286.732,140.758C287.281,139.242 287.605,137.678 287.711,136.109C287.829,134.374 287.675,132.697 287.313,131.13C286.842,129.096 286.025,127.262 284.991,125.676C283.586,123.521 281.76,121.783 279.709,120.511C278.372,119.681 276.927,119.041 275.413,118.609C273.917,118.181 272.346,117.955 270.742,117.955Z" style="fill:url(#_Linear5);fill-rule:nonzero;"/>
                    <path d="M217.55,139.834L217.58,139.791C220.301,135.79 222.648,131.553 224.597,127.134C225.076,126.047 225.652,125.01 226.317,124.034C226.989,123.049 227.744,122.135 228.571,121.301C230.322,119.535 232.353,118.164 234.522,117.207C237.056,116.09 239.728,115.557 242.353,115.557L270.742,115.557C272.573,115.557 274.365,115.816 276.072,116.303C277.798,116.796 279.448,117.527 280.974,118.473C283.313,119.925 285.397,121.908 287,124.367C288.179,126.177 289.112,128.269 289.649,130.59C290.062,132.378 290.237,134.291 290.103,136.271C289.982,138.06 289.613,139.846 288.986,141.575C287.228,146.426 285.284,150.762 283.256,154.576C279.806,161.067 275.492,167.218 270.326,172.114C265.583,176.61 261.455,178.839 258.341,180.127C256.095,181.057 252.212,182.366 247.336,182.274C243.552,182.202 240.384,181.392 237.276,180.104C234.403,178.912 229.625,176.989 223.213,174.825C220.562,173.93 218.141,172.475 216.113,170.565C214.175,168.739 212.599,166.502 211.53,163.962C210.604,161.758 210.068,159.344 210.017,156.831C209.972,154.613 210.307,152.356 211.054,150.168C211.761,148.098 212.818,146.146 214.195,144.404C214.446,144.087 215.211,143.091 215.388,142.857L217.55,139.834ZM270.742,117.955L242.353,117.955C240.052,117.955 237.71,118.421 235.49,119.401C233.588,120.24 231.809,121.441 230.274,122.989C229.549,123.72 228.887,124.521 228.299,125.385C227.716,126.24 227.211,127.149 226.791,128.101C224.776,132.67 222.348,137.049 219.533,141.183L217.32,144.276C217.172,144.474 216.342,145.554 216.076,145.891C214.869,147.418 213.942,149.128 213.323,150.943C212.668,152.86 212.374,154.839 212.414,156.783C212.458,158.985 212.928,161.101 213.741,163.032C214.677,165.259 216.059,167.22 217.757,168.82C219.535,170.494 221.656,171.769 223.98,172.553C230.46,174.74 235.291,176.685 238.195,177.889C241.033,179.066 243.925,179.811 247.381,179.876C251.832,179.96 255.374,178.76 257.424,177.912C260.349,176.701 264.221,174.597 268.677,170.374C273.659,165.652 277.811,159.712 281.139,153.45C283.118,149.727 285.016,145.494 286.732,140.758C287.281,139.242 287.605,137.678 287.711,136.109C287.829,134.374 287.675,132.697 287.313,131.13C286.842,129.096 286.025,127.262 284.991,125.676C283.586,123.521 281.76,121.783 279.709,120.511C278.372,119.681 276.927,119.041 275.413,118.609C273.917,118.181 272.346,117.955 270.742,117.955Z" style="fill:rgb(41,41,41);fill-opacity:0.75;"/>
                </g>
                <g id="touchpad-top-right-mask" transform="matrix(1,0,0,1,-151.685,1027.53)">
                    <path d="M32.629,117.955C29.856,117.955 27.175,118.631 24.794,119.867C22.279,121.172 20.147,123.075 18.572,125.388C17.31,127.241 16.429,129.32 15.974,131.515C15.671,132.983 15.55,134.541 15.663,136.149C15.771,137.697 16.092,139.242 16.632,140.739C19.168,147.762 22.101,153.659 25.201,158.58C28.345,163.571 32.008,168.125 36.309,171.827C40.893,175.773 44.687,177.469 46.876,178.276C49.643,179.298 53.148,180.143 57.375,179.808C60.284,179.577 62.748,178.896 65.176,177.889C69.688,176.018 74.432,174.224 79.393,172.548C81.791,171.737 83.973,170.404 85.784,168.649C87.552,166.936 88.962,164.826 89.864,162.433C90.645,160.361 91.035,158.1 90.944,155.768C90.875,154.017 90.535,152.256 89.907,150.553C89.291,148.88 88.411,147.304 87.292,145.888C87.015,145.537 86.05,144.276 83.838,141.183C81.023,137.049 78.594,132.67 76.58,128.101C75.794,126.32 74.717,124.704 73.407,123.311C72.011,121.827 70.392,120.638 68.648,119.763C67.447,119.16 66.199,118.711 64.934,118.412C63.632,118.104 62.317,117.955 61.017,117.955L32.629,117.955Z" style="fill:url(#_Linear6);fill-rule:nonzero;"/>
                    <path d="M32.629,115.557L61.017,115.557C62.5,115.557 64,115.727 65.486,116.079C66.929,116.42 68.354,116.932 69.724,117.62C71.713,118.619 73.561,119.975 75.154,121.668C76.648,123.257 77.878,125.102 78.773,127.134C80.725,131.561 83.078,135.804 85.804,139.811C87.962,142.827 88.902,144.058 89.173,144.401C90.45,146.017 91.454,147.815 92.157,149.723C92.873,151.666 93.261,153.676 93.34,155.673C93.444,158.335 92.998,160.915 92.108,163.278C91.079,166.009 89.47,168.417 87.453,170.371C85.386,172.373 82.897,173.895 80.16,174.819C75.252,176.478 70.558,178.253 66.094,180.104C63.439,181.204 60.745,181.945 57.565,182.198C52.928,182.566 49.082,181.646 46.046,180.526C43.707,179.663 39.645,177.861 34.745,173.644C30.267,169.789 26.445,165.055 23.172,159.857C19.991,154.808 16.979,148.76 14.377,141.553C13.761,139.845 13.395,138.083 13.271,136.316C13.143,134.482 13.28,132.704 13.627,131.029C14.145,128.525 15.151,126.153 16.591,124.039C18.388,121.4 20.82,119.228 23.689,117.739C26.406,116.329 29.465,115.557 32.629,115.557ZM32.629,117.955C29.856,117.955 27.175,118.631 24.794,119.867C22.279,121.172 20.147,123.075 18.572,125.388C17.31,127.241 16.429,129.32 15.974,131.515C15.671,132.983 15.55,134.541 15.663,136.149C15.771,137.697 16.092,139.242 16.632,140.739C19.168,147.762 22.101,153.659 25.201,158.58C28.345,163.571 32.008,168.125 36.309,171.827C40.893,175.773 44.687,177.469 46.876,178.276C49.643,179.298 53.148,180.143 57.375,179.808C60.284,179.577 62.748,178.896 65.176,177.889C69.688,176.018 74.432,174.224 79.393,172.548C81.791,171.737 83.973,170.404 85.784,168.649C87.552,166.936 88.962,164.826 89.864,162.433C90.645,160.361 91.035,158.1 90.944,155.768C90.875,154.017 90.535,152.256 89.907,150.553C89.291,148.88 88.411,147.304 87.292,145.888C87.015,145.537 86.05,144.276 83.838,141.183C81.023,137.049 78.594,132.67 76.58,128.101C75.794,126.32 74.717,124.704 73.407,123.311C72.011,121.827 70.392,120.638 68.648,119.763C67.447,119.16 66.199,118.711 64.934,118.412C63.632,118.104 62.317,117.955 61.017,117.955L32.629,117.955Z" style="fill:rgb(41,41,41);fill-opacity:0.75;"/>
                </g>
            </g>
            <g>
                <g id="touchpad-top-left" transform="matrix(-1,1.22465e-16,-1.22465e-16,-1,151.685,1217.51)">
                    <path d="M32.628,72.019L61.017,72.019L32.628,72.019ZM61.017,72.019C63.318,72.019 65.66,71.552 67.881,70.573C69.782,69.734 71.562,68.533 73.096,66.985C73.821,66.254 74.483,65.453 75.072,64.589C75.655,63.734 76.16,62.825 76.58,61.873C78.594,57.304 81.023,52.925 83.838,48.791L86.05,45.697C86.198,45.501 87.028,44.42 87.294,44.083C88.501,42.556 89.428,40.845 90.048,39.031C90.702,37.114 90.996,35.135 90.956,33.191C90.912,30.989 90.442,28.873 89.63,26.942C88.693,24.715 87.312,22.754 85.613,21.154C83.836,19.48 81.714,18.205 79.391,17.421C74.429,15.746 69.685,13.955 65.176,12.085C62.337,10.908 59.446,10.163 55.989,10.098C51.539,10.014 47.996,11.214 45.946,12.062C43.021,13.273 39.149,15.377 34.694,19.6C29.711,24.322 25.559,30.262 22.231,36.524C20.252,40.247 18.355,44.48 16.638,49.216C16.089,50.732 15.765,52.296 15.659,53.865C15.542,55.6 15.695,57.277 16.058,58.843C16.528,60.878 17.346,62.712 18.379,64.298C19.784,66.453 21.61,68.191 23.661,69.463C24.998,70.293 26.444,70.933 27.957,71.365C29.453,71.793 31.024,72.019 32.628,72.019" style="fill:rgb(101,194,221);fill-opacity:0;fill-rule:nonzero;"/>
                </g>
                <g id="touchpad-bottom-left" transform="matrix(-1,1.22465e-16,-1.22465e-16,-1,151.685,1217.51)">
                    <path d="M16.632,140.739C19.168,147.762 22.101,153.659 25.201,158.58C28.345,163.571 32.008,168.125 36.309,171.827C40.893,175.772 44.687,177.469 46.876,178.276C49.643,179.297 53.148,180.143 57.375,179.807C60.284,179.577 62.748,178.896 65.176,177.889C69.688,176.018 74.432,174.224 79.393,172.548C81.791,171.737 83.973,170.404 85.784,168.649C87.552,166.936 88.962,164.826 89.864,162.432C90.645,160.361 91.035,158.1 90.944,155.767C90.875,154.017 90.535,152.255 89.907,150.553C89.291,148.88 88.411,147.304 87.292,145.888C87.015,145.537 86.187,144.458 86.05,144.276L83.838,141.183C81.023,137.049 78.594,132.67 76.58,128.101C75.794,126.32 74.717,124.704 73.407,123.311C72.011,121.826 70.392,120.638 68.648,119.763C67.447,119.16 66.199,118.711 64.934,118.412C63.632,118.104 62.317,117.955 61.017,117.955L32.629,117.955C29.856,117.955 27.175,118.631 24.794,119.867C22.279,121.172 20.147,123.075 18.572,125.388C17.31,127.241 16.429,129.32 15.974,131.515C15.671,132.983 15.55,134.541 15.663,136.149C15.771,137.697 16.092,139.242 16.632,140.739Z" style="fill:rgb(101,194,221);fill-opacity:0;fill-rule:nonzero;"/>
                </g>
                <g id="touchpad-bottom-right" transform="matrix(-1,1.22465e-16,-1.22465e-16,-1,151.685,1217.51)">
                    <path d="M270.742,117.955L242.353,117.955C240.052,117.955 237.71,118.421 235.49,119.401C233.588,120.24 231.809,121.441 230.274,122.989C229.549,123.72 228.887,124.521 228.299,125.385C227.716,126.24 227.211,127.149 226.791,128.101C224.776,132.67 222.348,137.049 219.533,141.183L217.32,144.276C217.172,144.474 216.342,145.554 216.076,145.891C214.869,147.418 213.942,149.128 213.323,150.943C212.668,152.86 212.374,154.839 212.414,156.783C212.458,158.985 212.928,161.101 213.741,163.032C214.677,165.259 216.059,167.22 217.757,168.82C219.535,170.494 221.656,171.769 223.98,172.553C230.46,174.74 235.291,176.685 238.195,177.889C241.033,179.066 243.925,179.811 247.381,179.876C251.832,179.96 255.374,178.76 257.424,177.912C260.349,176.701 264.221,174.597 268.677,170.374C273.659,165.652 277.811,159.712 281.139,153.45C283.118,149.727 285.016,145.494 286.732,140.758C287.281,139.242 287.605,137.678 287.711,136.109C287.829,134.374 287.675,132.697 287.313,131.13C286.842,129.096 286.025,127.262 284.991,125.676C283.586,123.521 281.76,121.783 279.709,120.511C278.372,119.681 276.927,119.041 275.413,118.609C273.917,118.181 272.346,117.955 270.742,117.955Z" style="fill:rgb(101,194,221);fill-opacity:0;fill-rule:nonzero;"/>
                </g>
                <g id="touchpad-top-right" transform="matrix(1,0,0,1,-151.685,1027.53)">
                    <path d="M32.629,117.955C29.856,117.955 27.175,118.631 24.794,119.867C22.279,121.172 20.147,123.075 18.572,125.388C17.31,127.241 16.429,129.32 15.974,131.515C15.671,132.983 15.55,134.541 15.663,136.149C15.771,137.697 16.092,139.242 16.632,140.739C19.168,147.762 22.101,153.659 25.201,158.58C28.345,163.571 32.008,168.125 36.309,171.827C40.893,175.773 44.687,177.469 46.876,178.276C49.643,179.298 53.148,180.143 57.375,179.808C60.284,179.577 62.748,178.896 65.176,177.889C69.688,176.018 74.432,174.224 79.393,172.548C81.791,171.737 83.973,170.404 85.784,168.649C87.552,166.936 88.962,164.826 89.864,162.433C90.645,160.361 91.035,158.1 90.944,155.768C90.875,154.017 90.535,152.256 89.907,150.553C89.291,148.88 88.411,147.304 87.292,145.888C87.015,145.537 86.05,144.276 83.838,141.183C81.023,137.049 78.594,132.67 76.58,128.101C75.794,126.32 74.717,124.704 73.407,123.311C72.011,121.827 70.392,120.638 68.648,119.763C67.447,119.16 66.199,118.711 64.934,118.412C63.632,118.104 62.317,117.955 61.017,117.955L32.629,117.955Z" style="fill:rgb(101,194,221);fill-opacity:0;fill-rule:nonzero;"/>
                </g>
            </g>
        </g>
        <g>
            <g transform="matrix(-1.17028,0,0,-1.17028,147.642,1193.73)">
                <circle cx="129.561" cy="58.708" r="55.961" style="fill:url(#_Radial7);"/>
            </g>
            <g transform="matrix(-1.08128,0,0,-1.08128,140.091,1186)">
                <circle cx="129.561" cy="58.708" r="55.961" style="fill:rgb(99,91,121);"/>
            </g>
            <g transform="matrix(-1.01308,0,0,-1.01308,131.256,1182)">
                <circle cx="129.561" cy="58.708" r="55.961" style="fill:url(#_Linear8);"/>
            </g>
            <g>
                <g>
                    <g transform="matrix(-0.679784,0,0,-0.679784,357.152,1279.07)">
                        <path d="M529.734,204.188C526.567,204.188 523.99,201.611 523.99,198.444C523.99,195.277 526.567,192.7 529.734,192.7C532.901,192.7 535.477,195.277 535.477,198.444C535.478,201.611 532.901,204.188 529.734,204.188ZM529.734,193.843C527.197,193.843 525.132,195.907 525.132,198.445C525.132,200.982 527.196,203.046 529.734,203.046C532.272,203.046 534.335,200.982 534.335,198.445C534.335,195.907 532.272,193.843 529.734,193.843Z" style="fill:rgb(101,77,164);fill-rule:nonzero;"/>
                    </g>
                    <g transform="matrix(-0.679784,0,0,-0.679784,357.152,1279.07)">
                        <path d="M532.658,198.444C532.658,196.829 531.349,195.52 529.734,195.52C528.119,195.52 526.81,196.829 526.81,198.444C526.81,200.059 528.119,201.368 529.734,201.368C531.349,201.368 532.658,200.059 532.658,198.444Z" style="fill:rgb(101,77,164);fill-rule:nonzero;"/>
                    </g>
                    <g transform="matrix(-0.679784,0,0,-0.679784,357.152,1279.07)">
                        <path d="M533.796,195.191L532.987,194.382L539.778,187.594L589.654,187.594L589.654,188.736L540.25,188.736L533.796,195.191Z" style="fill:rgb(101,77,164);fill-rule:nonzero;"/>
                    </g>
                    <g transform="matrix(-0.679784,0,0,-0.679784,357.152,1279.07)">
                        <path d="M550.473,208.413C547.306,208.413 544.729,205.836 544.729,202.669C544.729,199.502 547.306,196.925 550.473,196.925C553.64,196.925 556.216,199.502 556.216,202.669C556.216,205.836 553.64,208.413 550.473,208.413ZM550.473,198.068C547.936,198.068 545.871,200.132 545.871,202.67C545.871,205.207 547.936,207.271 550.473,207.271C553.01,207.271 555.074,205.207 555.074,202.67C555.073,200.132 553.01,198.068 550.473,198.068Z" style="fill:rgb(101,77,164);fill-rule:nonzero;"/>
                    </g>
                    <g transform="matrix(-0.679784,0,0,-0.679784,357.152,1279.07)">
                        <path d="M553.396,202.669C553.396,204.284 552.087,205.593 550.472,205.593C548.857,205.593 547.548,204.284 547.548,202.669C547.548,201.054 548.857,199.745 550.472,199.745C552.087,199.745 553.396,201.054 553.396,202.669Z" style="fill:rgb(101,77,164);fill-rule:nonzero;"/>
                    </g>
                    <g transform="matrix(-0.679784,0,0,-0.679784,357.152,1279.07)">
                        <rect x="555.537" y="202.098" width="47.355" height="1.143" style="fill:rgb(101,77,164);"/>
                    </g>
                    <g transform="matrix(-0.679784,0,0,-0.679784,357.152,1279.07)">
                        <path d="M568.891,222.917C565.724,222.917 563.147,220.34 563.147,217.173C563.147,214.006 565.724,211.429 568.891,211.429C572.058,211.429 574.635,214.006 574.635,217.173C574.635,220.341 572.058,222.917 568.891,222.917ZM568.891,212.572C566.354,212.572 564.289,214.636 564.289,217.173C564.289,219.71 566.354,221.775 568.891,221.775C571.428,221.775 573.493,219.711 573.493,217.173C573.492,214.636 571.428,212.572 568.891,212.572Z" style="fill:rgb(101,77,164);fill-rule:nonzero;"/>
                    </g>
                    <g transform="matrix(-0.679784,0,0,-0.679784,357.152,1279.07)">
                        <path d="M571.814,217.173C571.814,218.788 570.505,220.097 568.89,220.097C567.275,220.097 565.966,218.788 565.966,217.173C565.966,215.558 567.275,214.249 568.89,214.249C570.505,214.249 571.814,215.559 571.814,217.173Z" style="fill:rgb(101,77,164);fill-rule:nonzero;"/>
                    </g>
                    <g transform="matrix(-0.679784,0,0,-0.679784,357.152,1279.07)">
                        <rect x="573.955" y="216.602" width="28.938" height="1.143" style="fill:rgb(101,77,164);"/>
                    </g>
                    <g transform="matrix(-0.679784,0,0,-0.679784,357.152,1213.55)">
                        <path d="M547.435,132.497C544.268,132.497 541.691,129.92 541.691,126.753C541.691,123.586 544.268,121.009 547.435,121.009C550.602,121.009 553.179,123.586 553.179,126.753C553.179,129.92 550.602,132.497 547.435,132.497ZM547.435,122.152C544.898,122.152 542.833,124.216 542.833,126.753C542.833,129.29 544.897,131.355 547.435,131.355C549.972,131.355 552.037,129.29 552.037,126.753C552.036,124.216 549.972,122.152 547.435,122.152Z" style="fill:rgb(101,77,164);fill-rule:nonzero;"/>
                    </g>
                    <g transform="matrix(-0.679784,0,0,-0.679784,357.152,1213.55)">
                        <path d="M550.359,126.753C550.359,128.368 549.05,129.677 547.435,129.677C545.82,129.677 544.511,128.368 544.511,126.753C544.511,125.138 545.82,123.829 547.435,123.829C549.05,123.829 550.359,125.138 550.359,126.753Z" style="fill:rgb(101,77,164);fill-rule:nonzero;"/>
                    </g>
                    <g transform="matrix(-0.679784,0,0,-0.679784,357.152,1213.55)">
                        <path d="M547.435,150.396C544.268,150.396 541.691,147.819 541.691,144.652C541.691,141.485 544.268,138.908 547.435,138.908C550.602,138.908 553.179,141.485 553.179,144.652C553.179,147.819 550.602,150.396 547.435,150.396ZM547.435,140.05C544.898,140.05 542.833,142.114 542.833,144.652C542.833,147.189 544.897,149.254 547.435,149.254C549.972,149.254 552.037,147.19 552.037,144.652C552.036,142.115 549.972,140.05 547.435,140.05Z" style="fill:rgb(101,77,164);fill-rule:nonzero;"/>
                    </g>
                    <g transform="matrix(-0.679784,0,0,-0.679784,357.152,1213.55)">
                        <path d="M550.359,144.652C550.359,146.267 549.05,147.576 547.435,147.576C545.82,147.576 544.511,146.267 544.511,144.652C544.511,143.037 545.82,141.728 547.435,141.728C549.05,141.728 550.359,143.037 550.359,144.652Z" style="fill:rgb(101,77,164);fill-rule:nonzero;"/>
                    </g>
                    <g transform="matrix(-0.679784,0,0,-0.679784,357.152,1213.55)">
                        <path d="M602.893,137.604L557.478,137.604L550.688,130.815L551.496,130.006L557.95,136.461L602.893,136.461L602.893,137.604Z" style="fill:rgb(101,77,164);fill-rule:nonzero;"/>
                    </g>
                    <g transform="matrix(-0.661544,0.156417,-0.156417,-0.661544,369.676,1129.2)">
                        <path d="M529.734,204.188C526.567,204.188 523.99,201.611 523.99,198.444C523.99,195.277 526.567,192.7 529.734,192.7C532.901,192.7 535.477,195.277 535.477,198.444C535.478,201.611 532.901,204.188 529.734,204.188ZM529.734,193.843C527.197,193.843 525.132,195.907 525.132,198.445C525.132,200.982 527.196,203.046 529.734,203.046C532.272,203.046 534.335,200.982 534.335,198.445C534.335,195.907 532.272,193.843 529.734,193.843Z" style="fill:rgb(101,77,164);fill-rule:nonzero;"/>
                    </g>
                    <g transform="matrix(-0.661544,0.156417,-0.156417,-0.661544,369.676,1129.2)">
                        <path d="M532.658,198.444C532.658,196.829 531.349,195.52 529.734,195.52C528.119,195.52 526.81,196.829 526.81,198.444C526.81,200.059 528.119,201.368 529.734,201.368C531.349,201.368 532.658,200.059 532.658,198.444Z" style="fill:rgb(101,77,164);fill-rule:nonzero;"/>
                    </g>
                    <g transform="matrix(-0.679784,0,0,-0.679784,357.152,1213.55)">
                        <rect x="552.499" y="144.081" width="50.394" height="1.143" style="fill:rgb(101,77,164);"/>
                    </g>
                    <g transform="matrix(-0.679784,0,0,-0.679784,360.152,1212.55)">
                        <path d="M560.71,164.9C557.543,164.9 554.966,162.323 554.966,159.156C554.966,155.989 557.543,153.412 560.71,153.412C563.877,153.412 566.453,155.989 566.453,159.156C566.453,162.324 563.877,164.9 560.71,164.9ZM560.71,154.555C558.173,154.555 556.108,156.619 556.108,159.157C556.108,161.694 558.172,163.759 560.71,163.759C563.247,163.759 565.311,161.695 565.311,159.157C565.311,156.619 563.247,154.555 560.71,154.555Z" style="fill:rgb(101,77,164);fill-rule:nonzero;"/>
                    </g>
                    <g transform="matrix(-0.679784,0,0,-0.679784,360.152,1212.55)">
                        <path d="M563.633,159.156C563.633,160.771 562.324,162.08 560.709,162.08C559.094,162.08 557.785,160.771 557.785,159.156C557.785,157.541 559.094,156.232 560.709,156.232C562.324,156.232 563.633,157.542 563.633,159.156Z" style="fill:rgb(101,77,164);fill-rule:nonzero;"/>
                    </g>
                    <g transform="matrix(-0.679784,0,0,-0.679784,360.152,1212.55)">
                        <rect x="565.775" y="158.585" width="37.118" height="1.143" style="fill:rgb(101,77,164);"/>
                    </g>
                    <g transform="matrix(-0.679784,0,0,-0.679784,357.152,1213.55)">
                        <path d="M537.46,179.405C534.293,179.405 531.716,176.828 531.716,173.661C531.716,170.494 534.293,167.917 537.46,167.917C540.627,167.917 543.204,170.494 543.204,173.661C543.204,176.828 540.627,179.405 537.46,179.405ZM537.46,169.059C534.923,169.059 532.858,171.123 532.858,173.661C532.858,176.198 534.922,178.263 537.46,178.263C539.997,178.263 542.062,176.199 542.062,173.661C542.062,171.124 539.997,169.059 537.46,169.059Z" style="fill:rgb(101,77,164);fill-rule:nonzero;"/>
                    </g>
                    <g transform="matrix(-0.679784,0,0,-0.679784,357.152,1213.55)">
                        <path d="M540.384,173.661C540.384,175.276 539.075,176.585 537.46,176.585C535.845,176.585 534.536,175.276 534.536,173.661C534.536,172.046 535.845,170.737 537.46,170.737C539.075,170.737 540.384,172.046 540.384,173.661Z" style="fill:rgb(101,77,164);fill-rule:nonzero;"/>
                    </g>
                    <g transform="matrix(-0.563829,-1.42004e-17,-1.42004e-17,-0.679784,294.243,1213.55)">
                        <rect x="542.525" y="173.089" width="60.368" height="1.143" style="fill:rgb(101,77,164);"/>
                    </g>
                    <g transform="matrix(-0.661544,0.156417,-0.156417,-0.661544,369.676,1129.2)">
                        <path d="M533.796,195.191L532.987,194.382L539.778,187.594L578.977,187.594L578.977,188.736L540.25,188.736L533.796,195.191Z" style="fill:rgb(101,77,164);fill-rule:nonzero;"/>
                    </g>
                </g>
                <g>
                    <g transform="matrix(0.679784,8.32495e-17,-8.32495e-17,0.679784,-366.745,1005.34)">
                        <path d="M547.435,132.497C544.268,132.497 541.691,129.92 541.691,126.753C541.691,123.586 544.268,121.009 547.435,121.009C550.602,121.009 553.179,123.586 553.179,126.753C553.179,129.92 550.602,132.497 547.435,132.497ZM547.435,122.152C544.898,122.152 542.833,124.216 542.833,126.753C542.833,129.29 544.897,131.355 547.435,131.355C549.972,131.355 552.037,129.29 552.037,126.753C552.036,124.216 549.972,122.152 547.435,122.152Z" style="fill:rgb(101,77,164);fill-rule:nonzero;"/>
                    </g>
                    <g transform="matrix(0.679784,8.32495e-17,-8.32495e-17,0.679784,-366.745,1005.34)">
                        <path d="M550.359,126.753C550.359,128.368 549.05,129.677 547.435,129.677C545.82,129.677 544.511,128.368 544.511,126.753C544.511,125.138 545.82,123.829 547.435,123.829C549.05,123.829 550.359,125.138 550.359,126.753Z" style="fill:rgb(101,77,164);fill-rule:nonzero;"/>
                    </g>
                    <g transform="matrix(0.679784,8.32495e-17,-8.32495e-17,0.679784,-355.918,1009.02)">
                        <path d="M547.435,150.396C544.268,150.396 541.691,147.819 541.691,144.652C541.691,141.485 544.268,138.908 547.435,138.908C550.602,138.908 553.179,141.485 553.179,144.652C553.179,147.819 550.602,150.396 547.435,150.396ZM547.435,140.05C544.898,140.05 542.833,142.114 542.833,144.652C542.833,147.189 544.897,149.254 547.435,149.254C549.972,149.254 552.037,147.19 552.037,144.652C552.036,142.115 549.972,140.05 547.435,140.05Z" style="fill:rgb(101,77,164);fill-rule:nonzero;"/>
                    </g>
                    <g transform="matrix(0.679784,8.32495e-17,-8.32495e-17,0.679784,-355.918,1009.02)">
                        <path d="M550.359,144.652C550.359,146.267 549.05,147.576 547.435,147.576C545.82,147.576 544.511,146.267 544.511,144.652C544.511,143.037 545.82,141.728 547.435,141.728C549.05,141.728 550.359,143.037 550.359,144.652Z" style="fill:rgb(101,77,164);fill-rule:nonzero;"/>
                    </g>
                    <g transform="matrix(0.679784,8.32495e-17,-8.32495e-17,0.679784,-366.745,1005.34)">
                        <path d="M602.893,137.604L557.478,137.604L550.688,130.815L551.496,130.006L557.95,136.461L602.893,136.461L602.893,137.604Z" style="fill:rgb(101,77,164);fill-rule:nonzero;"/>
                    </g>
                    <g transform="matrix(0.679784,8.32495e-17,-8.32495e-17,0.679784,-348.712,1009.02)">
                        <path d="M529.734,204.188C526.567,204.188 523.99,201.611 523.99,198.444C523.99,195.277 526.567,192.7 529.734,192.7C532.901,192.7 535.477,195.277 535.477,198.444C535.478,201.611 532.901,204.188 529.734,204.188ZM529.734,193.843C527.197,193.843 525.132,195.907 525.132,198.445C525.132,200.982 527.196,203.046 529.734,203.046C532.272,203.046 534.335,200.982 534.335,198.445C534.335,195.907 532.272,193.843 529.734,193.843Z" style="fill:rgb(101,77,164);fill-rule:nonzero;"/>
                    </g>
                    <g transform="matrix(0.679784,8.32495e-17,-8.32495e-17,0.679784,-348.712,1009.02)">
                        <path d="M532.658,198.444C532.658,196.829 531.349,195.52 529.734,195.52C528.119,195.52 526.81,196.829 526.81,198.444C526.81,200.059 528.119,201.368 529.734,201.368C531.349,201.368 532.658,200.059 532.658,198.444Z" style="fill:rgb(101,77,164);fill-rule:nonzero;"/>
                    </g>
                    <g transform="matrix(0.679784,8.32495e-17,-8.32495e-17,0.679784,-355.918,1009.02)">
                        <rect x="552.499" y="144.081" width="50.394" height="1.143" style="fill:rgb(101,77,164);"/>
                    </g>
                    <g transform="matrix(0.679784,8.32495e-17,-8.32495e-17,0.679784,-353.712,1009.02)">
                        <path d="M560.71,164.9C557.543,164.9 554.966,162.323 554.966,159.156C554.966,155.989 557.543,153.412 560.71,153.412C563.877,153.412 566.453,155.989 566.453,159.156C566.453,162.324 563.877,164.9 560.71,164.9ZM560.71,154.555C558.173,154.555 556.108,156.619 556.108,159.157C556.108,161.694 558.172,163.759 560.71,163.759C563.247,163.759 565.311,161.695 565.311,159.157C565.311,156.619 563.247,154.555 560.71,154.555Z" style="fill:rgb(101,77,164);fill-rule:nonzero;"/>
                    </g>
                    <g transform="matrix(0.679784,8.32495e-17,-8.32495e-17,0.679784,-353.712,1009.02)">
                        <path d="M563.633,159.156C563.633,160.771 562.324,162.08 560.709,162.08C559.094,162.08 557.785,160.771 557.785,159.156C557.785,157.541 559.094,156.232 560.709,156.232C562.324,156.232 563.633,157.542 563.633,159.156Z" style="fill:rgb(101,77,164);fill-rule:nonzero;"/>
                    </g>
                    <g transform="matrix(0.679784,8.32495e-17,-8.32495e-17,0.679784,-353.712,1009.02)">
                        <rect x="565.775" y="158.585" width="37.118" height="1.143" style="fill:rgb(101,77,164);"/>
                    </g>
                    <g transform="matrix(0.679784,8.32495e-17,-8.32495e-17,0.679784,-348.712,1009.02)">
                        <path d="M537.46,179.405C534.293,179.405 531.716,176.828 531.716,173.661C531.716,170.494 534.293,167.917 537.46,167.917C540.627,167.917 543.204,170.494 543.204,173.661C543.204,176.828 540.627,179.405 537.46,179.405ZM537.46,169.059C534.923,169.059 532.858,171.123 532.858,173.661C532.858,176.198 534.922,178.263 537.46,178.263C539.997,178.263 542.062,176.199 542.062,173.661C542.062,171.124 539.997,169.059 537.46,169.059Z" style="fill:rgb(101,77,164);fill-rule:nonzero;"/>
                    </g>
                    <g transform="matrix(0.679784,8.32495e-17,-8.32495e-17,0.679784,-348.712,1009.02)">
                        <path d="M540.384,173.661C540.384,175.276 539.075,176.585 537.46,176.585C535.845,176.585 534.536,175.276 534.536,173.661C534.536,172.046 535.845,170.737 537.46,170.737C539.075,170.737 540.384,172.046 540.384,173.661Z" style="fill:rgb(101,77,164);fill-rule:nonzero;"/>
                    </g>
                    <g transform="matrix(0.500713,8.32495e-17,-6.13197e-17,0.679784,-251.562,1009.02)">
                        <rect x="542.525" y="173.089" width="60.368" height="1.143" style="fill:rgb(101,77,164);"/>
                    </g>
                    <g transform="matrix(0.679784,8.32495e-17,-8.32495e-17,0.679784,-348.712,1009.02)">
                        <path d="M533.796,195.191L532.987,194.382L539.778,187.594L586.991,187.594L586.991,188.736L540.25,188.736L533.796,195.191Z" style="fill:rgb(101,77,164);fill-rule:nonzero;"/>
                    </g>
                    <g transform="matrix(0.679784,8.32495e-17,-8.32495e-17,0.679784,-351.666,1009.02)">
                        <path d="M550.473,208.413C547.306,208.413 544.729,205.836 544.729,202.669C544.729,199.502 547.306,196.925 550.473,196.925C553.64,196.925 556.216,199.502 556.216,202.669C556.216,205.836 553.64,208.413 550.473,208.413ZM550.473,198.068C547.936,198.068 545.871,200.132 545.871,202.67C545.871,205.207 547.936,207.271 550.473,207.271C553.01,207.271 555.074,205.207 555.074,202.67C555.073,200.132 553.01,198.068 550.473,198.068Z" style="fill:rgb(101,77,164);fill-rule:nonzero;"/>
                    </g>
                    <g transform="matrix(0.679784,8.32495e-17,-8.32495e-17,0.679784,-351.666,1009.02)">
                        <path d="M553.396,202.669C553.396,204.284 552.087,205.593 550.472,205.593C548.857,205.593 547.548,204.284 547.548,202.669C547.548,201.054 548.857,199.745 550.472,199.745C552.087,199.745 553.396,201.054 553.396,202.669Z" style="fill:rgb(101,77,164);fill-rule:nonzero;"/>
                    </g>
                    <g transform="matrix(0.492775,8.32495e-17,-6.03475e-17,0.679784,-247.775,1009.02)">
                        <rect x="555.537" y="202.098" width="47.355" height="1.143" style="fill:rgb(101,77,164);"/>
                    </g>
                    <g transform="matrix(0.58871,0.339892,-0.339892,0.58871,-229.192,785.558)">
                        <path d="M529.734,204.188C526.567,204.188 523.99,201.611 523.99,198.444C523.99,195.277 526.567,192.7 529.734,192.7C532.901,192.7 535.477,195.277 535.477,198.444C535.478,201.611 532.901,204.188 529.734,204.188ZM529.734,193.843C527.197,193.843 525.132,195.907 525.132,198.445C525.132,200.982 527.196,203.046 529.734,203.046C532.272,203.046 534.335,200.982 534.335,198.445C534.335,195.907 532.272,193.843 529.734,193.843Z" style="fill:rgb(101,77,164);fill-rule:nonzero;"/>
                    </g>
                    <g transform="matrix(0.58871,0.339892,-0.339892,0.58871,-229.192,785.558)">
                        <path d="M532.658,198.444C532.658,196.829 531.349,195.52 529.734,195.52C528.119,195.52 526.81,196.829 526.81,198.444C526.81,200.059 528.119,201.368 529.734,201.368C531.349,201.368 532.658,200.059 532.658,198.444Z" style="fill:rgb(101,77,164);fill-rule:nonzero;"/>
                    </g>
                    <g transform="matrix(0.58871,0.339892,-0.339892,0.58871,-229.192,785.558)">
                        <path d="M533.796,195.191L532.987,194.382L539.778,187.594L578.977,187.594L578.977,188.736L540.25,188.736L533.796,195.191Z" style="fill:rgb(101,77,164);fill-rule:nonzero;"/>
                    </g>
                </g>
            </g>
            <g>
                <g>
                    <g>
                        <g transform="matrix(1,0,0,3.4801,-151.685,818.086)">
                            <path d="M144.197,83C144.198,82.547 145.541,82.175 147.173,82.175C148.805,82.175 150.148,82.547 150.149,83L150.149,92C150.149,92 150.149,92.001 150.149,92.001C150.149,92.454 148.806,92.827 147.173,92.827C145.541,92.827 144.197,92.454 144.197,92.001C144.197,92.001 144.197,92 144.197,92L144.197,83Z" style="fill:url(#_Linear9);"/>
                        </g>
                        <g transform="matrix(1,0,0,3.4801,-142.661,818.086)">
                            <path d="M144.197,83C144.198,82.547 145.541,82.175 147.173,82.175C148.805,82.175 150.148,82.547 150.149,83L150.149,92C150.149,92 150.149,92.001 150.149,92.001C150.149,92.454 148.806,92.827 147.173,92.827C145.541,92.827 144.197,92.454 144.197,92.001C144.197,92.001 144.197,92 144.197,92L144.197,83Z" style="fill:url(#_Linear10);"/>
                        </g>
                    </g>
                    <g>
                        <g transform="matrix(1,0,0,3.4801,-151.685,818.086)">
                            <path d="M144.197,83C144.198,82.547 145.541,82.175 147.173,82.175C148.805,82.175 150.148,82.547 150.149,83L150.149,92C150.149,92 150.149,92.001 150.149,92.001C150.149,92.454 148.806,92.827 147.173,92.827C145.541,92.827 144.197,92.454 144.197,92.001C144.197,92.001 144.197,92 144.197,92L144.197,83Z" style="fill:url(#_Linear11);"/>
                        </g>
                        <g transform="matrix(1,0,0,3.4801,-142.661,818.086)">
                            <path d="M144.197,83C144.198,82.547 145.541,82.175 147.173,82.175C148.805,82.175 150.148,82.547 150.149,83L150.149,92C150.149,92 150.149,92.001 150.149,92.001C150.149,92.454 148.806,92.827 147.173,92.827C145.541,92.827 144.197,92.454 144.197,92.001C144.197,92.001 144.197,92 144.197,92L144.197,83Z" style="fill:url(#_Linear12);"/>
                        </g>
                    </g>
                </g>
                <g id="path154" transform="matrix(-1,-1.22465e-16,1.22465e-16,-1,-7.90528e-07,2245.04)">
                    <rect x="-7.488" y="1115.8" width="14.976" height="13.44" style="fill:url(#_Linear13);fill-rule:nonzero;"/>
                </g>
                <g id="path165" transform="matrix(-1,-1.22465e-16,1.22465e-16,-1,-7.90528e-07,2245.04)">
                    <path d="M6.642,1138.14C6.642,1137.01 5.68,1136.08 4.512,1136.08C3.344,1136.08 2.382,1137.01 2.382,1138.14C2.382,1139.27 3.344,1140.19 4.512,1140.19C5.68,1140.19 6.642,1139.27 6.642,1138.14Z" style="fill:rgb(255,223,181);fill-rule:nonzero;"/>
                </g>
                <g id="path1651" serif:id="path165" transform="matrix(-1,-1.22465e-16,1.22465e-16,-1,9.024,2245.04)">
                    <path d="M6.642,1138.14C6.642,1137.01 5.68,1136.08 4.512,1136.08C3.344,1136.08 2.382,1137.01 2.382,1138.14C2.382,1139.27 3.344,1140.19 4.512,1140.19C5.68,1140.19 6.642,1139.27 6.642,1138.14Z" style="fill:rgb(255,223,181);fill-rule:nonzero;"/>
                </g>
                <g id="path171" transform="matrix(-1,-1.22465e-16,1.22465e-16,-1,-7.90528e-07,2245.04)">
                    <path d="M2.382,1106.9C2.382,1108.03 3.344,1108.96 4.512,1108.96C5.68,1108.96 6.642,1108.03 6.642,1106.9C6.642,1105.77 5.68,1104.85 4.512,1104.85C3.344,1104.85 2.382,1105.77 2.382,1106.9Z" style="fill:rgb(255,223,181);fill-rule:nonzero;"/>
                </g>
                <g id="path1711" serif:id="path171" transform="matrix(-1,-1.22465e-16,1.22465e-16,-1,9.024,2245.04)">
                    <path d="M2.382,1106.9C2.382,1108.03 3.344,1108.96 4.512,1108.96C5.68,1108.96 6.642,1108.03 6.642,1106.9C6.642,1105.77 5.68,1104.85 4.512,1104.85C3.344,1104.85 2.382,1105.77 2.382,1106.9Z" style="fill:rgb(255,223,181);fill-rule:nonzero;"/>
                </g>
            </g>
            <g transform="matrix(-1.08128,0,0,-1.08128,140.092,1186)">
                <path d="M160.798,96.104C162.646,94.542 164.988,93.684 167.409,93.684C170.122,93.658 173.256,93.658 173.256,93.658C162.997,106.463 147.23,114.669 129.561,114.669C111.893,114.669 96.126,106.463 85.867,93.658L91.714,93.658C94.14,93.658 96.488,94.518 98.341,96.085C106.785,103.181 117.68,107.442 129.561,107.442C141.443,107.442 152.337,103.181 160.798,96.104Z" style="fill:url(#_Linear14);"/>
            </g>
            <g transform="matrix(-0.692695,0,0,-0.692695,89.7468,1163.19)">
                <path d="M129.563,-28.646C81.351,-28.646 42.207,10.496 42.207,58.708C42.207,78.063 48.516,95.957 59.188,110.443C59.188,110.443 74.247,107.32 89.782,106.581C91.262,106.543 92.571,105.608 93.086,104.22C93.601,102.831 93.219,101.269 92.121,100.275C80.75,90.035 73.6,75.2 73.6,58.708C73.6,40.697 82.127,24.662 95.361,14.423L163.763,14.423C176.997,24.662 185.524,40.697 185.524,58.708C185.524,75.2 178.374,90.035 167.008,100.281C165.913,101.273 165.532,102.831 166.046,104.216C166.56,105.601 167.865,106.534 169.342,106.571C184.877,107.32 199.936,110.443 199.936,110.443C210.608,95.957 216.917,78.063 216.917,58.708C216.917,10.496 177.775,-28.646 129.563,-28.646Z" style="fill:url(#_Linear15);"/>
            </g>
            <g transform="matrix(-0.692695,0,0,-0.692695,89.7468,1163.19)">
                <path d="M84.411,106.926C71.212,94.749 62.939,77.31 62.939,57.954C62.939,21.183 92.792,-8.669 129.563,-8.669C166.333,-8.669 196.186,21.183 196.186,57.954C196.186,77.307 187.916,94.743 174.721,106.92C172.95,106.777 171.149,106.658 169.342,106.571C167.865,106.534 166.56,105.601 166.046,104.216C165.532,102.831 165.913,101.273 167.008,100.281C178.374,90.035 185.524,75.2 185.524,58.708C185.524,40.697 176.997,24.662 163.763,14.423L95.361,14.423C82.127,24.662 73.6,40.697 73.6,58.708C73.6,75.2 80.75,90.035 92.121,100.275C93.219,101.269 93.601,102.831 93.086,104.22C92.571,105.608 91.262,106.543 89.782,106.581C87.978,106.667 86.18,106.785 84.411,106.926Z" style="fill:url(#_Linear16);"/>
            </g>
            <g>
                <g id="path6" transform="matrix(-1,-1.22465e-16,1.22465e-16,-1,-7.90528e-07,2245.04)">
                    <path d="M-40.323,1103.01L-41.112,1103.05L-41.895,1102.94L-42.642,1102.68L-43.326,1102.29L-43.923,1101.77L-44.412,1101.15L-44.774,1100.44L-44.997,1099.68L-45.072,1098.9L-44.997,1098.11L-44.774,1097.35L-44.412,1096.65L-43.923,1096.03L-43.326,1095.51L-42.642,1095.12L-41.895,1094.86L-41.112,1094.75L-40.323,1094.78L-39.555,1094.97L-38.836,1095.3L-38.192,1095.76L-37.647,1096.33L-37.219,1096.99L-36.926,1097.73L-36.776,1098.5L-36.776,1099.29L-36.926,1100.07L-37.219,1100.8L-37.647,1101.47L-38.192,1102.04L-38.836,1102.5L-39.555,1102.83L-40.323,1103.01Z" style="fill:rgb(255,223,181);fill-rule:nonzero;stroke:rgb(218,170,106);stroke-width:0.72px;stroke-linecap:butt;stroke-linejoin:miter;stroke-miterlimit:4;"/>
                </g>
                <g id="path7" transform="matrix(-1,-1.22465e-16,1.22465e-16,-1,-7.90528e-07,2245.04)">
                    <path d="M-45.952,1119.57C-45.952,1118.64 -46.719,1117.87 -47.652,1117.87C-48.586,1117.87 -49.353,1118.64 -49.353,1119.57C-49.353,1120.5 -48.586,1121.27 -47.652,1121.27C-46.719,1121.27 -45.952,1120.5 -45.952,1119.57Z" style="fill:rgb(255,223,181);fill-rule:nonzero;stroke:rgb(218,170,106);stroke-width:0.72px;stroke-linecap:butt;stroke-linejoin:miter;stroke-miterlimit:4;"/>
                </g>
                <g id="path8" transform="matrix(-1,-1.22465e-16,1.22465e-16,-1,-7.90528e-07,2245.04)">
                    <path d="M41.506,1103.01L40.717,1103.05L39.934,1102.94L39.188,1102.68L38.503,1102.29L37.906,1101.77L37.417,1101.15L37.055,1100.44L36.832,1099.68L36.757,1098.9L36.832,1098.11L37.055,1097.35L37.417,1096.65L37.906,1096.03L38.503,1095.51L39.188,1095.12L39.934,1094.86L40.717,1094.75L41.506,1094.78L42.274,1094.97L42.993,1095.3L43.637,1095.76L44.183,1096.33L44.61,1096.99L44.904,1097.73L45.053,1098.5L45.053,1099.29L44.904,1100.07L44.61,1100.8L44.183,1101.47L43.637,1102.04L42.993,1102.5L42.274,1102.83L41.506,1103.01Z" style="fill:rgb(255,223,181);fill-rule:nonzero;stroke:rgb(218,170,106);stroke-width:0.72px;stroke-linecap:butt;stroke-linejoin:miter;stroke-miterlimit:4;"/>
                </g>
                <g id="path9" transform="matrix(-1,-1.22465e-16,1.22465e-16,-1,-7.90528e-07,2245.04)">
                    <path d="M-45.358,1130.89C-45.358,1129.96 -46.126,1129.19 -47.059,1129.19C-47.992,1129.19 -48.76,1129.96 -48.76,1130.89C-48.76,1131.83 -47.992,1132.59 -47.059,1132.59C-46.126,1132.59 -45.358,1131.83 -45.358,1130.89Z" style="fill:rgb(255,223,181);fill-rule:nonzero;stroke:rgb(218,170,106);stroke-width:0.72px;stroke-linecap:butt;stroke-linejoin:miter;stroke-miterlimit:4;"/>
                </g>
                <g id="path10" transform="matrix(-1,-1.22465e-16,1.22465e-16,-1,-7.90528e-07,2247.04)">
                    <path d="M-36.637,1155.72L-37.427,1155.76L-38.209,1155.65L-38.956,1155.39L-39.64,1154.99L-40.238,1154.48L-40.726,1153.85L-41.089,1153.15L-41.311,1152.39L-41.386,1151.61L-41.311,1150.82L-41.089,1150.06L-40.726,1149.36L-40.238,1148.74L-39.64,1148.22L-38.956,1147.83L-38.209,1147.57L-37.427,1147.45L-36.637,1147.49L-35.869,1147.68L-35.15,1148.01L-34.506,1148.46L-33.961,1149.04L-33.534,1149.7L-33.24,1150.44L-33.09,1151.21L-33.09,1152L-33.24,1152.78L-33.534,1153.51L-33.961,1154.18L-34.506,1154.75L-35.15,1155.21L-35.869,1155.54L-36.637,1155.72Z" style="fill:rgb(255,223,181);fill-rule:nonzero;stroke:rgb(218,170,106);stroke-width:0.72px;stroke-linecap:butt;stroke-linejoin:miter;stroke-miterlimit:4;"/>
                </g>
                <g id="path11" transform="matrix(-1,-1.22465e-16,1.22465e-16,-1,-7.90528e-07,2247.04)">
                    <path d="M37.821,1155.72L37.031,1155.76L36.249,1155.65L35.502,1155.39L34.817,1154.99L34.22,1154.48L33.731,1153.85L33.369,1153.15L33.147,1152.39L33.071,1151.61L33.147,1150.82L33.369,1150.06L33.731,1149.36L34.22,1148.74L34.817,1148.22L35.502,1147.83L36.249,1147.57L37.031,1147.45L37.821,1147.49L38.589,1147.68L39.308,1148.01L39.951,1148.46L40.497,1149.04L40.924,1149.7L41.218,1150.44L41.368,1151.21L41.368,1152L41.218,1152.78L40.924,1153.51L40.497,1154.18L39.951,1154.75L39.308,1155.21L38.589,1155.54L37.821,1155.72Z" style="fill:rgb(255,223,181);fill-rule:nonzero;stroke:rgb(218,170,106);stroke-width:0.72px;stroke-linecap:butt;stroke-linejoin:miter;stroke-miterlimit:4;"/>
                </g>
                <g transform="matrix(1,0,0,1,-151.685,1031.31)">
                    <path d="M109.354,89.318L109.354,93.098L109.354,93.097C109.354,95.183 107.661,96.877 105.575,96.877C103.489,96.877 101.795,95.183 101.795,93.097L101.795,93.098L101.795,89.318L101.795,89.318C101.795,87.232 103.489,85.538 105.575,85.538C107.661,85.538 109.354,87.232 109.354,89.318L109.354,89.318Z" style="fill:rgb(255,223,181);stroke:rgb(218,170,106);stroke-width:0.72px;stroke-linecap:butt;stroke-linejoin:miter;stroke-miterlimit:4;"/>
                </g>
            </g>
        </g>
    </g>
    <defs>
        <linearGradient id="_Linear1" x1="0" y1="0" x2="1" y2="0" gradientUnits="userSpaceOnUse" gradientTransform="matrix(-221,189.974,-189.974,-221,250.37,-0.000135347)"><stop offset="0" style="stop-color:rgb(96,96,96);stop-opacity:1"/><stop offset="1" style="stop-color:rgb(228,228,228);stop-opacity:1"/></linearGradient>
        <linearGradient id="_Linear2" x1="0" y1="0" x2="1" y2="0" gradientUnits="userSpaceOnUse" gradientTransform="matrix(-234,189.974,-189.974,-234,268.37,-0.000135347)"><stop offset="0" style="stop-color:rgb(113,113,120);stop-opacity:1"/><stop offset="1" style="stop-color:rgb(168,177,181);stop-opacity:1"/></linearGradient>
        <linearGradient id="_Linear3" x1="0" y1="0" x2="1" y2="0.22789" gradientUnits="userSpaceOnUse" gradientTransform="matrix(66.5671,-56.7551,42.5304,88.8311,20.8056,69.4338)"><stop offset="0" style="stop-color:rgb(86,86,86);stop-opacity:0.75"/><stop offset="1" style="stop-color:rgb(155,155,155);stop-opacity:0.75"/></linearGradient>
        <linearGradient id="_Linear4" x1="0" y1="0" x2="1" y2="0.227943" gradientUnits="userSpaceOnUse" gradientTransform="matrix(66.5635,-56.7565,42.5281,88.8334,20.8064,177.297)"><stop offset="0" style="stop-color:rgb(86,86,86);stop-opacity:0.75"/><stop offset="1" style="stop-color:rgb(155,155,155);stop-opacity:0.75"/></linearGradient>
        <linearGradient id="_Linear5" x1="0" y1="0" x2="1" y2="0.227891" gradientUnits="userSpaceOnUse" gradientTransform="matrix(66.5671,-56.7552,42.5304,88.8313,217.596,177.295)"><stop offset="0" style="stop-color:rgb(86,86,86);stop-opacity:0.75"/><stop offset="1" style="stop-color:rgb(155,155,155);stop-opacity:0.75"/></linearGradient>
        <linearGradient id="_Linear6" x1="0" y1="0" x2="1" y2="0.227943" gradientUnits="userSpaceOnUse" gradientTransform="matrix(66.5635,-56.7565,42.5281,88.8333,20.8064,177.297)"><stop offset="0" style="stop-color:rgb(86,86,86);stop-opacity:0.75"/><stop offset="1" style="stop-color:rgb(155,155,155);stop-opacity:0.75"/></linearGradient>
        <radialGradient id="_Radial7" cx="0" cy="0" r="1" gradientUnits="userSpaceOnUse" gradientTransform="matrix(12.9952,-50.7944,50.7944,12.9952,127.973,57.0029)"><stop offset="0" style="stop-color:rgb(57,54,64);stop-opacity:0.85"/><stop offset="0.56" style="stop-color:rgb(45,43,51);stop-opacity:0.68"/><stop offset="1" style="stop-color:black;stop-opacity:0"/></radialGradient>
        <linearGradient id="_Linear8" x1="0" y1="0" x2="1" y2="0" gradientUnits="userSpaceOnUse" gradientTransform="matrix(-85.8088,91.1266,-91.1266,-85.8088,168.733,12.6388)"><stop offset="0" style="stop-color:rgb(22,3,108);stop-opacity:1"/><stop offset="1" style="stop-color:rgb(90,34,172);stop-opacity:1"/></linearGradient>
        <linearGradient id="_Linear9" x1="0" y1="0" x2="1" y2="0" gradientUnits="userSpaceOnUse" gradientTransform="matrix(41.6883,-11.979,41.6883,11.979,137,94.3786)"><stop offset="0" style="stop-color:rgb(227,149,46);stop-opacity:1"/><stop offset="1" style="stop-color:rgb(234,190,132);stop-opacity:1"/></linearGradient>
        <linearGradient id="_Linear10" x1="0" y1="0" x2="1" y2="0" gradientUnits="userSpaceOnUse" gradientTransform="matrix(41.6883,-11.979,41.6883,11.979,127.976,94.3786)"><stop offset="0" style="stop-color:rgb(227,149,46);stop-opacity:1"/><stop offset="1" style="stop-color:rgb(234,190,132);stop-opacity:1"/></linearGradient>
        <linearGradient id="_Linear11" x1="0" y1="0" x2="1" y2="0" gradientUnits="userSpaceOnUse" gradientTransform="matrix(41.6883,-11.979,41.6883,11.979,137,94.3786)"><stop offset="0" style="stop-color:rgb(227,149,46);stop-opacity:1"/><stop offset="1" style="stop-color:rgb(234,190,132);stop-opacity:1"/></linearGradient>
        <linearGradient id="_Linear12" x1="0" y1="0" x2="1" y2="0" gradientUnits="userSpaceOnUse" gradientTransform="matrix(41.6883,-11.979,41.6883,11.979,127.976,94.3786)"><stop offset="0" style="stop-color:rgb(227,149,46);stop-opacity:1"/><stop offset="1" style="stop-color:rgb(234,190,132);stop-opacity:1"/></linearGradient>
        <linearGradient id="_Linear13" x1="0" y1="0" x2="1" y2="0" gradientUnits="userSpaceOnUse" gradientTransform="matrix(-26.2452,24.5479,-24.5479,-26.2452,15.6852,1108.96)"><stop offset="0" style="stop-color:rgb(161,102,23);stop-opacity:1"/><stop offset="1" style="stop-color:rgb(201,155,93);stop-opacity:1"/></linearGradient>
        <linearGradient id="_Linear14" x1="0" y1="0" x2="1" y2="0" gradientUnits="userSpaceOnUse" gradientTransform="matrix(-44.1201,44.1201,-44.1201,-44.1201,125.299,67.0195)"><stop offset="0" style="stop-color:rgb(170,169,175);stop-opacity:1"/><stop offset="1" style="stop-color:rgb(211,207,219);stop-opacity:1"/></linearGradient>
        <linearGradient id="_Linear15" x1="0" y1="0" x2="1" y2="0" gradientUnits="userSpaceOnUse" gradientTransform="matrix(-142.147,163.689,-163.689,-142.147,196.186,-23.1368)"><stop offset="0" style="stop-color:rgb(158,157,160);stop-opacity:1"/><stop offset="1" style="stop-color:rgb(227,227,227);stop-opacity:1"/></linearGradient>
        <linearGradient id="_Linear16" x1="0" y1="0" x2="1" y2="0.0858824" gradientUnits="userSpaceOnUse" gradientTransform="matrix(-108.412,136.041,-124.842,-118.137,180.375,-4.09072)"><stop offset="0" style="stop-color:rgb(143,141,146);stop-opacity:1"/><stop offset="1" style="stop-color:rgb(215,215,215);stop-opacity:1"/></linearGradient>
    </defs>
</svg>
